<?xml version="1.0" standalone="no"?>
<!DOCTYPE svg PUBLIC "-//W3C//DTD SVG 1.1//EN" "http://www.w3.org/Graphics/SVG/1.1/DTD/svg11.dtd" >
<svg>
<metadata>
Created by FontForge 20100429 at Sat May  9 21:46:11 2015
 By fontface
Copyright (c) 2010-2014 by Martin Zarth. All rights reserved.
</metadata>
<defs>
<font id="Arcon-Regular" horiz-adv-x="600" >
  <font-face 
    font-family="Arcon"
    font-weight="400"
    font-stretch="normal"
    units-per-em="1000"
    panose-1="0 0 5 0 0 0 0 0 0 0"
    ascent="800"
    descent="-200"
    x-height="440"
    cap-height="714"
    bbox="-110 -429 1121 983"
    underline-thickness="50"
    underline-position="-50"
    stemh="64"
    stemv="67"
    unicode-range="U+0020-FB02"
  />
<missing-glyph horiz-adv-x="500" 
d="M0 0v700h500v-700h-500zM250 395l170 255h-340zM280 350l170 -255v510zM80 50h340l-170 255zM50 605v-510l170 255z" />
    <glyph glyph-name="f_f" unicode="ff" horiz-adv-x="535" 
d="M495 714v-62c-103 13 -94 -87 -94 -152v-60h89v-61h-89v-379h-67v379h-168v-379h-67v379h-59v61h59v60c0 108 3 236 161 214v-62c-103 13 -94 -87 -94 -152v-60h168v60c0 108 3 236 161 214z" />
    <glyph glyph-name="fi" unicode="fi" horiz-adv-x="419" 
d="M166 440h202v-440h-67v379h-135v-379h-67v379h-59v61h59v60c0 108 3 236 161 214v-62c-103 13 -94 -87 -94 -152v-60zM334 530c-26 0 -46 21 -46 47c0 23 20 44 46 44c24 0 45 -21 45 -44c0 -26 -21 -47 -45 -47z" />
    <glyph glyph-name="fl" unicode="fl" horiz-adv-x="441" 
d="M311 714h65v-714h-67v652c-152 22 -143 -87 -143 -152v-60h79v-61h-79v-379h-67v379h-59v61h59v60c0 108 3 243 212 214z" />
    <glyph glyph-name=".notdef" horiz-adv-x="500" 
d="M0 0v700h500v-700h-500zM250 395l170 255h-340zM280 350l170 -255v510zM80 50h340l-170 255zM50 605v-510l170 255z" />
    <glyph glyph-name="A" unicode="A" horiz-adv-x="721" 
d="M0 0l321 714h79l321 -714h-79l-128 284h-307l-128 -284h-79zM483 354l-122 272l-123 -272h245z" />
    <glyph glyph-name="Aacute" unicode="&#xc1;" horiz-adv-x="721" 
d="M347 804h-75l104 145h87zM0 0l321 714h79l321 -714h-79l-128 284h-307l-128 -284h-79zM483 354l-122 272l-123 -272h245z" />
    <glyph glyph-name="Abreve" unicode="&#x102;" horiz-adv-x="721" 
d="M438 922h64c7 -71 -51 -121 -141 -121c-91 0 -149 50 -142 121h62c4 -39 33 -62 80 -62c45 0 73 23 77 62zM0 0l321 714h79l321 -714h-79l-128 284h-307l-128 -284h-79zM483 354l-122 272l-123 -272h245z" />
    <glyph glyph-name="Acircumflex" unicode="&#xc2;" horiz-adv-x="721" 
d="M440 796l-78 88l-79 -88l-40 28l104 134h29l104 -134zM0 0l321 714h79l321 -714h-79l-128 284h-307l-128 -284h-79zM483 354l-122 272l-123 -272h245z" />
    <glyph glyph-name="Adieresis" unicode="&#xc4;" horiz-adv-x="721" 
d="M265 804c-26 0 -46 21 -46 47c0 23 20 44 46 44c24 0 45 -21 45 -44c0 -26 -21 -47 -45 -47zM458 804c-26 0 -46 21 -46 47c0 23 20 44 46 44c24 0 45 -21 45 -44c0 -26 -21 -47 -45 -47zM0 0l321 714h79l321 -714h-79l-128 284h-307l-128 -284h-79zM483 354l-122 272
l-123 -272h245z" />
    <glyph glyph-name="Agrave" unicode="&#xc0;" horiz-adv-x="721" 
d="M379 804l-116 145h87l104 -145h-75zM0 0l321 714h79l321 -714h-79l-128 284h-307l-128 -284h-79zM483 354l-122 272l-123 -272h245z" />
    <glyph glyph-name="Amacron" unicode="&#x100;" horiz-adv-x="721" 
d="M165 859h394v-59h-394v59zM0 0l321 714h79l321 -714h-79l-128 284h-307l-128 -284h-79zM483 354l-122 272l-123 -272h245z" />
    <glyph glyph-name="Aogonek" unicode="&#x104;" horiz-adv-x="721" 
d="M721 0h-32c-58 -94 30 -93 85 -65v-61c-66 -34 -213 -17 -130 126h-2l-128 284h-307l-128 -284h-79l321 714h79zM238 354h245l-122 272z" />
    <glyph glyph-name="Aring" unicode="&#xc5;" horiz-adv-x="721" 
d="M361 802c-48 0 -87 41 -87 88c0 44 39 85 87 85c45 0 86 -41 86 -85c0 -47 -41 -88 -86 -88zM361 845c23 0 43 20 43 45c0 22 -20 42 -43 42c-25 0 -44 -20 -44 -42c0 -25 19 -45 44 -45zM0 0l321 714h79l321 -714h-79l-128 284h-307l-128 -284h-79zM483 354l-122 272
l-123 -272h245z" />
    <glyph glyph-name="Atilde" unicode="&#xc3;" horiz-adv-x="721" 
d="M409 794c-50 0 -60 42 -90 42c-35 0 -36 -36 -36 -36h-62c0 21 16 93 98 93c56 0 62 -42 90 -42c35 0 36 36 36 36h62c0 -21 -16 -93 -98 -93zM0 0l321 714h79l321 -714h-79l-128 284h-307l-128 -284h-79zM483 354l-122 272l-123 -272h245z" />
    <glyph glyph-name="AE" unicode="&#xc6;" horiz-adv-x="884" 
d="M0 0l321 714h389v-70h-283l46 -220h255v-70h-240l60 -284h266v-70h-329l-57 284h-221l-128 -284h-79zM238 354h176l-54 272z" />
    <glyph glyph-name="B" unicode="B" horiz-adv-x="608" 
d="M80 0v714h255c106 0 176 -68 176 -170c0 -53 -24 -99 -61 -130c67 -38 113 -109 113 -192c0 -133 -91 -222 -228 -222h-255zM153 444h182c60 0 100 40 100 100s-40 100 -100 100h-182v-200zM153 70h182c91 0 152 61 152 152s-61 152 -152 152h-182v-304z" />
    <glyph glyph-name="C" unicode="C" horiz-adv-x="761" 
d="M630 170h91c-65 -108 -183 -180 -318 -180c-205 0 -373 166 -373 370c0 196 168 362 373 362c134 0 251 -72 316 -176h-91c-54 63 -134 103 -225 103c-165 0 -297 -132 -297 -289c0 -165 132 -297 297 -297c92 0 174 41 227 107z" />
    <glyph glyph-name="Cacute" unicode="&#x106;" horiz-adv-x="761" 
d="M389 804h-75l104 145h87zM630 170h91c-65 -108 -183 -180 -318 -180c-205 0 -373 166 -373 370c0 196 168 362 373 362c134 0 251 -72 316 -176h-91c-54 63 -134 103 -225 103c-165 0 -297 -132 -297 -289c0 -165 132 -297 297 -297c92 0 174 41 227 107z" />
    <glyph glyph-name="Ccaron" unicode="&#x10c;" horiz-adv-x="761" 
d="M483 983l40 -28l-104 -134h-29l-104 134l40 28l79 -88zM630 170h91c-65 -108 -183 -180 -318 -180c-205 0 -373 166 -373 370c0 196 168 362 373 362c134 0 251 -72 316 -176h-91c-54 63 -134 103 -225 103c-165 0 -297 -132 -297 -289c0 -165 132 -297 297 -297
c92 0 174 41 227 107z" />
    <glyph glyph-name="Ccedilla" unicode="&#xc7;" horiz-adv-x="761" 
d="M630 170h91c-61 -102 -170 -172 -295 -179l-3 -6c49 -8 84 -40 84 -81c0 -48 -47 -84 -107 -84c-61 0 -108 36 -108 84h50c0 -25 26 -45 58 -45c31 0 56 20 56 45c0 24 -25 44 -56 44h-42l20 43c-194 13 -348 173 -348 369s168 362 373 362c134 0 251 -72 316 -176h-91
c-54 63 -134 103 -225 103c-165 0 -297 -132 -297 -289c0 -165 132 -297 297 -297c92 0 174 41 227 107z" />
    <glyph glyph-name="Cdotaccent" unicode="&#x10a;" horiz-adv-x="761" 
d="M403 803c-27 0 -48 22 -48 49c0 24 21 46 48 46c25 0 47 -22 47 -46c0 -27 -22 -49 -47 -49zM630 170h91c-65 -108 -183 -180 -318 -180c-205 0 -373 166 -373 370c0 196 168 362 373 362c134 0 251 -72 316 -176h-91c-54 63 -134 103 -225 103
c-165 0 -297 -132 -297 -289c0 -165 132 -297 297 -297c92 0 174 41 227 107z" />
    <glyph glyph-name="D" unicode="D" horiz-adv-x="673" 
d="M80 0v714h190c259 0 363 -102 363 -357s-104 -357 -363 -357h-190zM153 70h117c205 0 287 82 287 287s-82 287 -287 287h-117v-574z" />
    <glyph glyph-name="Eth" unicode="&#xd0;" horiz-adv-x="673" 
d="M80 714h190c259 0 363 -102 363 -357s-104 -357 -363 -357h-190v252h-55v67h55v395zM153 70h117c205 0 287 82 287 287s-82 287 -287 287h-117v-325h255v-67h-255v-182z" />
    <glyph glyph-name="Dcaron" unicode="&#x10e;" horiz-adv-x="673" 
d="M400 983l40 -28l-104 -134h-29l-104 134l40 28l79 -88zM80 0v714h190c259 0 363 -102 363 -357s-104 -357 -363 -357h-190zM153 70h117c205 0 287 82 287 287s-82 287 -287 287h-117v-574z" />
    <glyph glyph-name="Dcroat" unicode="&#x110;" horiz-adv-x="673" 
d="M80 714h190c259 0 363 -102 363 -357s-104 -357 -363 -357h-190v252h-55v67h55v395zM153 70h117c205 0 287 82 287 287s-82 287 -287 287h-117v-325h255v-67h-255v-182z" />
    <glyph glyph-name="E" unicode="E" horiz-adv-x="564" 
d="M80 0v714h414v-70h-341v-200h322v-70h-322v-304h341v-70h-414z" />
    <glyph glyph-name="Eacute" unicode="&#xc9;" horiz-adv-x="564" 
d="M277 804h-75l104 145h87zM80 0v714h414v-70h-341v-200h322v-70h-322v-304h341v-70h-414z" />
    <glyph glyph-name="Ecaron" unicode="&#x11a;" horiz-adv-x="564" 
d="M371 983l40 -28l-104 -134h-29l-104 134l40 28l79 -88zM80 0v714h414v-70h-341v-200h322v-70h-322v-304h341v-70h-414z" />
    <glyph glyph-name="Ecircumflex" unicode="&#xca;" horiz-adv-x="564" 
d="M370 796l-78 88l-79 -88l-40 28l104 134h29l104 -134zM80 0v714h414v-70h-341v-200h322v-70h-322v-304h341v-70h-414z" />
    <glyph glyph-name="Edieresis" unicode="&#xcb;" horiz-adv-x="564" 
d="M195 804c-26 0 -46 21 -46 47c0 23 20 44 46 44c24 0 45 -21 45 -44c0 -26 -21 -47 -45 -47zM388 804c-26 0 -46 21 -46 47c0 23 20 44 46 44c24 0 45 -21 45 -44c0 -26 -21 -47 -45 -47zM80 0v714h414v-70h-341v-200h322v-70h-322v-304h341v-70h-414z" />
    <glyph glyph-name="Edotaccent" unicode="&#x116;" horiz-adv-x="564" 
d="M291 803c-27 0 -48 22 -48 49c0 24 21 46 48 46c25 0 47 -22 47 -46c0 -27 -22 -49 -47 -49zM80 0v714h414v-70h-341v-200h322v-70h-322v-304h341v-70h-414z" />
    <glyph glyph-name="Egrave" unicode="&#xc8;" horiz-adv-x="564" 
d="M309 804l-116 145h87l104 -145h-75zM80 0v714h414v-70h-341v-200h322v-70h-322v-304h341v-70h-414z" />
    <glyph glyph-name="Emacron" unicode="&#x112;" horiz-adv-x="564" 
d="M95 859h394v-59h-394v59zM80 0v714h414v-70h-341v-200h322v-70h-322v-304h341v-70h-414z" />
    <glyph glyph-name="Eogonek" unicode="&#x118;" horiz-adv-x="564" 
d="M80 0v714h414v-70h-341v-200h322v-70h-322v-304h341v-70h-414zM664 -65v-61c-67 -35 -220 -16 -124 136h46c-71 -104 21 -104 78 -75z" />
    <glyph glyph-name="F" unicode="F" horiz-adv-x="495" 
d="M80 0v714h385v-70h-312v-200h289v-70h-289v-374h-73z" />
    <glyph glyph-name="G" unicode="G" horiz-adv-x="796" 
d="M403 -9c-205 0 -373 166 -373 370c0 196 168 362 373 362c139 0 255 -77 319 -187h-82c-54 69 -141 114 -237 114c-165 0 -297 -132 -297 -289c0 -165 132 -297 297 -297c105 0 197 54 250 136v161h73v-361h-73v87c-66 -60 -154 -96 -250 -96z" />
    <glyph glyph-name="Gbreve" unicode="&#x11e;" horiz-adv-x="796" 
d="M480 922h64c7 -71 -51 -121 -141 -121c-91 0 -149 50 -142 121h62c4 -39 33 -62 80 -62c45 0 73 23 77 62zM403 -9c-205 0 -373 166 -373 370c0 196 168 362 373 362c139 0 255 -77 319 -187h-82c-54 69 -141 114 -237 114c-165 0 -297 -132 -297 -289
c0 -165 132 -297 297 -297c105 0 197 54 250 136v161h73v-361h-73v87c-66 -60 -154 -96 -250 -96z" />
    <glyph glyph-name="Gcommaaccent" unicode="&#x122;" horiz-adv-x="796" 
d="M403 -9c-205 0 -373 166 -373 370c0 196 168 362 373 362c139 0 255 -77 319 -187h-82c-54 69 -141 114 -237 114c-165 0 -297 -132 -297 -289c0 -165 132 -297 297 -297c105 0 197 54 250 136v161h73v-361h-73v87c-66 -60 -154 -96 -250 -96zM362 -254l19 76
c-23 7 -39 28 -39 53c0 30 25 55 56 55c30 0 55 -25 55 -55c0 -15 -6 -28 -11 -38l-48 -91h-32z" />
    <glyph glyph-name="Gdotaccent" unicode="&#x120;" horiz-adv-x="796" 
d="M403 803c-27 0 -48 22 -48 49c0 24 21 46 48 46c25 0 47 -22 47 -46c0 -27 -22 -49 -47 -49zM403 -9c-205 0 -373 166 -373 370c0 196 168 362 373 362c139 0 255 -77 319 -187h-82c-54 69 -141 114 -237 114c-165 0 -297 -132 -297 -289c0 -165 132 -297 297 -297
c105 0 197 54 250 136v161h73v-361h-73v87c-66 -60 -154 -96 -250 -96z" />
    <glyph glyph-name="H" unicode="H" horiz-adv-x="718" 
d="M80 0v714h73v-294h415v294h70v-714h-70v350h-415v-350h-73z" />
    <glyph glyph-name="Hbar" unicode="&#x126;" horiz-adv-x="718" 
d="M638 520v-520h-70v350h-415v-350h-73v520h-56v49h56v145h73v-145h415v145h70v-145h54v-49h-54zM153 520v-100h415v100h-415z" />
    <glyph glyph-name="I" unicode="I" horiz-adv-x="233" 
d="M80 0v714h73v-714h-73z" />
    <glyph glyph-name="IJ" unicode="&#x132;" horiz-adv-x="476" 
d="M80 0v714h73v-714h-73zM123 -200v73c126 0 200 75 200 201v640h73v-640c0 -172 -101 -274 -273 -274z" />
    <glyph glyph-name="Iacute" unicode="&#xcd;" horiz-adv-x="233" 
d="M132 949h87l-116 -145h-75zM80 0v714h73v-714h-73z" />
    <glyph glyph-name="Icircumflex" unicode="&#xce;" horiz-adv-x="233" 
d="M196 796l-78 88l-79 -88l-40 28l104 134h29l104 -134zM80 0v714h73v-714h-73z" />
    <glyph glyph-name="Idieresis" unicode="&#xcf;" horiz-adv-x="233" 
d="M21 804c-26 0 -46 21 -46 47c0 23 20 44 46 44c24 0 45 -21 45 -44c0 -26 -21 -47 -45 -47zM214 804c-26 0 -46 21 -46 47c0 23 20 44 46 44c24 0 45 -21 45 -44c0 -26 -21 -47 -45 -47zM80 0v714h73v-714h-73z" />
    <glyph glyph-name="Idotaccent" unicode="&#x130;" horiz-adv-x="233" 
d="M117 803c-27 0 -48 22 -48 49c0 24 21 46 48 46c25 0 47 -22 47 -46c0 -27 -22 -49 -47 -49zM80 0v714h73v-714h-73z" />
    <glyph glyph-name="Igrave" unicode="&#xcc;" horiz-adv-x="233" 
d="M135 804l-116 145h87l104 -145h-75zM80 0v714h73v-714h-73z" />
    <glyph glyph-name="Imacron" unicode="&#x12a;" horiz-adv-x="233" 
d="M-79 859h394v-59h-394v59zM80 0v714h73v-714h-73z" />
    <glyph glyph-name="Iogonek" unicode="&#x12e;" horiz-adv-x="233" 
d="M80 0v714h73v-714h-73zM323 -65v-61c-67 -35 -220 -16 -124 136h46c-71 -104 21 -104 78 -75z" />
    <glyph glyph-name="J" unicode="J" horiz-adv-x="353" 
d="M0 -200v73c126 0 200 75 200 201v640h73v-640c0 -172 -101 -274 -273 -274z" />
    <glyph glyph-name="K" unicode="K" horiz-adv-x="613" 
d="M80 0v714h73v-337l310 337h91l-283 -314l342 -400h-91l-299 346l-70 -78v-268h-73z" />
    <glyph glyph-name="Kcommaaccent" unicode="&#x136;" horiz-adv-x="613" 
d="M80 0v714h73v-337l310 337h91l-283 -314l342 -400h-91l-299 346l-70 -78v-268h-73zM271 -254l19 76c-23 7 -39 28 -39 53c0 30 25 55 56 55c30 0 55 -25 55 -55c0 -15 -6 -28 -11 -38l-48 -91h-32z" />
    <glyph glyph-name="L" unicode="L" horiz-adv-x="512" 
d="M80 0v714h73v-644h329v-70h-402z" />
    <glyph glyph-name="Lacute" unicode="&#x139;" horiz-adv-x="512" 
d="M155 804h-75l104 145h87zM80 0v714h73v-644h329v-70h-402z" />
    <glyph glyph-name="Lcaron" unicode="&#x13d;" horiz-adv-x="512" 
d="M301 538l19 76c-23 7 -39 28 -39 53c0 30 25 55 56 55c30 0 55 -25 55 -55c0 -15 -6 -28 -11 -38l-48 -91h-32zM80 0v714h73v-644h329v-70h-402z" />
    <glyph glyph-name="Lcommaaccent" unicode="&#x13b;" horiz-adv-x="512" 
d="M80 0v714h73v-644h329v-70h-402zM253 -254l19 76c-23 7 -39 28 -39 53c0 30 25 55 56 55c30 0 55 -25 55 -55c0 -15 -6 -28 -11 -38l-48 -91h-32z" />
    <glyph glyph-name="Ldot" unicode="&#x13f;" horiz-adv-x="512" 
d="M80 0v714h73v-644h329v-70h-402zM332 252c-32 0 -56 28 -56 57c0 26 24 54 56 54c27 0 55 -28 55 -54c0 -29 -27 -57 -55 -57z" />
    <glyph glyph-name="Lslash" unicode="&#x141;" horiz-adv-x="512" 
d="M482 0h-402v281l-78 -40v63l78 40v370h73v-333l117 59v-63l-117 -59v-248h329v-70z" />
    <glyph glyph-name="M" unicode="M" horiz-adv-x="872" 
d="M719 0v547l-239 -547h-87l-240 547v-547h-73v714h83l273 -634l273 634h83v-714h-73z" />
    <glyph glyph-name="N" unicode="N" horiz-adv-x="768" 
d="M80 0v714h88l447 -614v614h73v-714h-88l-447 614v-614h-73z" />
    <glyph glyph-name="Nacute" unicode="&#x143;" horiz-adv-x="768" 
d="M401 949h87l-116 -145h-75zM615 100v614h73v-714h-88l-447 614v-614h-73v714h88z" />
    <glyph glyph-name="Ncaron" unicode="&#x147;" horiz-adv-x="768" 
d="M402 821h-29l-104 134l40 28l79 -88l78 88l40 -28zM615 100v614h73v-714h-88l-447 614v-614h-73v714h88z" />
    <glyph glyph-name="Ncommaaccent" unicode="&#x145;" horiz-adv-x="768" 
d="M80 0v714h88l447 -614v614h73v-714h-88l-447 614v-614h-73zM344 -254l19 76c-23 7 -39 28 -39 53c0 30 25 55 56 55c30 0 55 -25 55 -55c0 -15 -6 -28 -11 -38l-48 -91h-32z" />
    <glyph glyph-name="Eng" unicode="&#x14a;" horiz-adv-x="768" 
d="M615 714h73v-714c0 -171 -4 -234 -198 -201v73c126 -18 125 0 125 107l-15 21l-447 614v-614h-73v714h88l447 -614v614z" />
    <glyph glyph-name="Ntilde" unicode="&#xd1;" horiz-adv-x="768" 
d="M434 794c-50 0 -60 42 -90 42c-35 0 -36 -36 -36 -36h-62c0 21 16 93 98 93c56 0 62 -42 90 -42c35 0 36 36 36 36h62c0 -21 -16 -93 -98 -93zM80 0v714h88l447 -614v614h73v-714h-88l-447 614v-614h-73z" />
    <glyph glyph-name="O" unicode="O" horiz-adv-x="814" 
d="M407 724c205 0 372 -166 372 -362c0 -204 -167 -370 -372 -370s-372 166 -372 370c0 196 167 362 372 362zM407 65c165 0 296 132 296 297c0 157 -131 289 -296 289s-296 -132 -296 -289c0 -165 131 -297 296 -297z" />
    <glyph glyph-name="Oacute" unicode="&#xd3;" horiz-adv-x="814" 
d="M393 807h-75l104 145h87zM407 724c205 0 372 -166 372 -362c0 -204 -167 -370 -372 -370s-372 166 -372 370c0 196 167 362 372 362zM407 65c165 0 296 132 296 297c0 157 -131 289 -296 289s-296 -132 -296 -289c0 -165 131 -297 296 -297z" />
    <glyph glyph-name="Ocircumflex" unicode="&#xd4;" horiz-adv-x="814" 
d="M486 799l-78 88l-79 -88l-40 28l104 134h29l104 -134zM407 724c205 0 372 -166 372 -362c0 -204 -167 -370 -372 -370s-372 166 -372 370c0 196 167 362 372 362zM407 65c165 0 296 132 296 297c0 157 -131 289 -296 289s-296 -132 -296 -289c0 -165 131 -297 296 -297z
" />
    <glyph glyph-name="Odieresis" unicode="&#xd6;" horiz-adv-x="814" 
d="M311 807c-26 0 -46 21 -46 47c0 23 20 44 46 44c24 0 45 -21 45 -44c0 -26 -21 -47 -45 -47zM504 807c-26 0 -46 21 -46 47c0 23 20 44 46 44c24 0 45 -21 45 -44c0 -26 -21 -47 -45 -47zM407 724c205 0 372 -166 372 -362c0 -204 -167 -370 -372 -370s-372 166 -372 370
c0 196 167 362 372 362zM407 65c165 0 296 132 296 297c0 157 -131 289 -296 289s-296 -132 -296 -289c0 -165 131 -297 296 -297z" />
    <glyph glyph-name="Ograve" unicode="&#xd2;" horiz-adv-x="814" 
d="M425 807l-116 145h87l104 -145h-75zM407 724c205 0 372 -166 372 -362c0 -204 -167 -370 -372 -370s-372 166 -372 370c0 196 167 362 372 362zM407 65c165 0 296 132 296 297c0 157 -131 289 -296 289s-296 -132 -296 -289c0 -165 131 -297 296 -297z" />
    <glyph glyph-name="Ohungarumlaut" unicode="&#x150;" horiz-adv-x="814" 
d="M281 780l104 145h87l-116 -145h-75zM444 780l104 145h87l-116 -145h-75zM407 724c205 0 372 -166 372 -362c0 -204 -167 -370 -372 -370s-372 166 -372 370c0 196 167 362 372 362zM407 65c165 0 296 132 296 297c0 157 -131 289 -296 289s-296 -132 -296 -289
c0 -165 131 -297 296 -297z" />
    <glyph glyph-name="Omacron" unicode="&#x14c;" horiz-adv-x="814" 
d="M211 862h394v-59h-394v59zM407 724c205 0 372 -166 372 -362c0 -204 -167 -370 -372 -370s-372 166 -372 370c0 196 167 362 372 362zM407 65c165 0 296 132 296 297c0 157 -131 289 -296 289s-296 -132 -296 -289c0 -165 131 -297 296 -297z" />
    <glyph glyph-name="Oslash" unicode="&#xd8;" horiz-adv-x="814" 
d="M567 752l-18 -56c135 -55 230 -186 230 -334c0 -204 -167 -370 -372 -370c-29 0 -58 3 -85 10l-23 -69h-68l29 89c-132 57 -225 188 -225 340c0 196 167 362 372 362c27 0 54 -3 80 -9l12 37h68zM111 362c0 -121 70 -223 172 -270l181 554c-18 3 -37 5 -57 5
c-165 0 -296 -132 -296 -289zM407 65c165 0 296 132 296 297c0 117 -73 219 -177 265l-182 -555c20 -5 41 -7 63 -7z" />
    <glyph glyph-name="Otilde" unicode="&#xd5;" horiz-adv-x="814" 
d="M455 797c-50 0 -60 42 -90 42c-35 0 -36 -36 -36 -36h-62c0 21 16 93 98 93c56 0 62 -42 90 -42c35 0 36 36 36 36h62c0 -21 -16 -93 -98 -93zM407 724c205 0 372 -166 372 -362c0 -204 -167 -370 -372 -370s-372 166 -372 370c0 196 167 362 372 362zM407 65
c165 0 296 132 296 297c0 157 -131 289 -296 289s-296 -132 -296 -289c0 -165 131 -297 296 -297z" />
    <glyph glyph-name="OE" unicode="&#x152;" horiz-adv-x="1191" 
d="M1121 644h-341v-200h322v-70h-322v-304h341v-70h-414v144c-68 -92 -177 -152 -300 -152c-205 0 -372 166 -372 370c0 196 167 362 372 362c123 0 232 -60 300 -150v140h414v-70zM407 65c165 0 296 132 296 297c0 157 -131 289 -296 289s-296 -132 -296 -289
c0 -165 131 -297 296 -297z" />
    <glyph glyph-name="P" unicode="P" horiz-adv-x="572" 
d="M80 714h234c136 0 228 -89 228 -222s-91 -222 -228 -222h-161v-270h-73v714zM153 340h161c91 0 152 61 152 152s-60 152 -152 152h-161v-304z" />
    <glyph glyph-name="Thorn" unicode="&#xde;" horiz-adv-x="233" 
d="M80 0v714h73v-714h-73z" />
    <glyph glyph-name="Q" unicode="Q" horiz-adv-x="810" 
d="M402 -11c-205 0 -372 166 -372 370c0 196 167 362 372 362s372 -166 372 -362c0 -116 -54 -219 -138 -287l60 -76l-62 -52l-66 84c-50 -25 -106 -39 -166 -39zM402 62c43 0 84 9 120 25l-98 126l62 50l105 -133c66 54 107 136 107 229c0 157 -131 289 -296 289
s-296 -132 -296 -289c0 -165 131 -297 296 -297z" />
    <glyph glyph-name="R" unicode="R" horiz-adv-x="606" 
d="M80 0v714h234c136 0 228 -89 228 -222c0 -111 -63 -191 -164 -215l218 -277h-97l-213 270h-133v-270h-73zM153 340h161c91 0 152 61 152 152s-60 152 -152 152h-161v-304z" />
    <glyph glyph-name="Racute" unicode="&#x154;" horiz-adv-x="596" 
d="M217 804l104 145h87l-116 -145h-75zM80 714h234c136 0 228 -89 228 -222c0 -111 -63 -191 -164 -215l218 -277h-97l-213 270h-133v-270h-73v714zM153 340h161c91 0 152 61 152 152s-60 152 -152 152h-161v-304z" />
    <glyph glyph-name="Rcaron" unicode="&#x158;" horiz-adv-x="596" 
d="M426 955l-104 -134h-29l-104 134l40 28l79 -88l78 88zM80 714h234c136 0 228 -89 228 -222c0 -111 -63 -191 -164 -215l218 -277h-97l-213 270h-133v-270h-73v714zM153 340h161c91 0 152 61 152 152s-60 152 -152 152h-161v-304z" />
    <glyph glyph-name="Rcommaaccent" unicode="&#x156;" horiz-adv-x="606" 
d="M80 0v714h234c136 0 228 -89 228 -222c0 -111 -63 -191 -164 -215l218 -277h-97l-213 270h-133v-270h-73zM153 340h161c91 0 152 61 152 152s-60 152 -152 152h-161v-304zM264 -254l19 76c-23 7 -39 28 -39 53c0 30 25 55 56 55c30 0 55 -25 55 -55c0 -15 -6 -28 -11 -38
l-48 -91h-32z" />
    <glyph glyph-name="S" unicode="S" horiz-adv-x="524" 
d="M459 568h-80c-15 47 -63 84 -117 84c-78 0 -129 -56 -129 -118s43 -90 129 -117c133 -42 232 -94 232 -219s-103 -207 -232 -207c-119 0 -216 80 -230 191h76c14 -69 77 -118 154 -118c87 0 156 51 156 134c0 66 -43 102 -156 137c-133 41 -205 91 -205 199
s82 191 205 191c100 0 181 -65 197 -157z" />
    <glyph glyph-name="Sacute" unicode="&#x15a;" horiz-adv-x="524" 
d="M178 804l104 145h87l-116 -145h-75zM459 568h-80c-15 47 -63 84 -117 84c-78 0 -129 -56 -129 -118s43 -90 129 -117c133 -42 232 -94 232 -219s-103 -207 -232 -207c-119 0 -216 80 -230 191h76c14 -69 77 -118 154 -118c87 0 156 51 156 134c0 66 -43 102 -156 137
c-133 41 -205 91 -205 199s82 191 205 191c100 0 181 -65 197 -157z" />
    <glyph glyph-name="Scaron" unicode="&#x160;" horiz-adv-x="524" 
d="M387 955l-104 -134h-29l-104 134l40 28l79 -88l78 88zM459 568h-80c-15 47 -63 84 -117 84c-78 0 -129 -56 -129 -118s43 -90 129 -117c133 -42 232 -94 232 -219s-103 -207 -232 -207c-119 0 -216 80 -230 191h76c14 -69 77 -118 154 -118c87 0 156 51 156 134
c0 66 -43 102 -156 137c-133 41 -205 91 -205 199s82 191 205 191c100 0 181 -65 197 -157z" />
    <glyph glyph-name="Scedilla" unicode="&#x15e;" horiz-adv-x="524" 
d="M494 198c0 -117 -91 -197 -209 -206l-3 -7c49 -8 84 -40 84 -81c0 -48 -47 -84 -107 -84c-61 0 -108 36 -108 84h50c0 -25 26 -45 58 -45c31 0 56 20 56 45c0 24 -25 44 -56 44h-42l20 44c-107 10 -192 87 -205 190h76c14 -69 77 -118 154 -118c87 0 156 51 156 134
c0 66 -43 102 -156 137c-133 41 -205 91 -205 199s82 191 205 191c100 0 181 -65 197 -157h-80c-15 47 -63 84 -117 84c-78 0 -129 -56 -129 -118s43 -90 129 -117c133 -42 232 -94 232 -219z" />
    <glyph glyph-name="Scommaaccent" unicode="&#x218;" horiz-adv-x="524" 
d="M459 568h-80c-15 47 -63 84 -117 84c-78 0 -129 -56 -129 -118s43 -90 129 -117c133 -42 232 -94 232 -219s-103 -207 -232 -207c-119 0 -216 80 -230 191h76c14 -69 77 -118 154 -118c87 0 156 51 156 134c0 66 -43 102 -156 137c-133 41 -205 91 -205 199
s82 191 205 191c100 0 181 -65 197 -157zM220 -254l19 76c-23 7 -39 28 -39 53c0 30 25 55 56 55c30 0 55 -25 55 -55c0 -15 -6 -28 -11 -38l-48 -91h-32z" />
    <glyph glyph-name="T" unicode="T" horiz-adv-x="576" 
d="M252 0v644h-242v70h556v-70h-241v-644h-73z" />
    <glyph glyph-name="Tbar" unicode="&#x166;" horiz-adv-x="576" 
d="M92 859h394v-59h-394v59zM252 0v644h-242v70h556v-70h-241v-644h-73z" />
    <glyph glyph-name="Tcaron" unicode="&#x164;" horiz-adv-x="576" 
d="M408 955l-104 -134h-29l-104 134l40 28l79 -88l78 88zM10 644v70h556v-70h-241v-644h-73v644h-242z" />
    <glyph glyph-name="Tcedilla" unicode="&#x162;" horiz-adv-x="576" 
d="M325 0h-10l-7 -15c49 -8 84 -40 84 -81c0 -48 -47 -84 -107 -84c-61 0 -108 36 -108 84h50c0 -25 26 -45 58 -45c31 0 56 20 56 45c0 24 -25 44 -56 44h-42l24 52h-15v644h-242v70h556v-70h-241v-644z" />
    <glyph glyph-name="Tcommaaccent" unicode="&#x21a;" horiz-adv-x="576" 
d="M252 0v644h-242v70h556v-70h-241v-644h-73zM246 -254l19 76c-23 7 -39 28 -39 53c0 30 25 55 56 55c30 0 55 -25 55 -55c0 -15 -6 -28 -11 -38l-48 -91h-32z" />
    <glyph glyph-name="U" unicode="U" horiz-adv-x="668" 
d="M335 -16c-173 0 -275 102 -275 274v456h73v-456c0 -126 75 -201 202 -201c126 0 200 75 200 201v456h73v-456c0 -172 -101 -274 -273 -274z" />
    <glyph glyph-name="Uacute" unicode="&#xda;" horiz-adv-x="668" 
d="M245 804l104 145h87l-116 -145h-75zM335 -16c-173 0 -275 102 -275 274v456h73v-456c0 -126 75 -201 202 -201c126 0 200 75 200 201v456h73v-456c0 -172 -101 -274 -273 -274z" />
    <glyph glyph-name="Ucircumflex" unicode="&#xdb;" horiz-adv-x="668" 
d="M413 796l-78 88l-79 -88l-40 28l104 134h29l104 -134zM335 -16c-173 0 -275 102 -275 274v456h73v-456c0 -126 75 -201 202 -201c126 0 200 75 200 201v456h73v-456c0 -172 -101 -274 -273 -274z" />
    <glyph glyph-name="Udieresis" unicode="&#xdc;" horiz-adv-x="668" 
d="M238 804c-26 0 -46 21 -46 47c0 23 20 44 46 44c24 0 45 -21 45 -44c0 -26 -21 -47 -45 -47zM431 804c-26 0 -46 21 -46 47c0 23 20 44 46 44c24 0 45 -21 45 -44c0 -26 -21 -47 -45 -47zM335 -16c-173 0 -275 102 -275 274v456h73v-456c0 -126 75 -201 202 -201
c126 0 200 75 200 201v456h73v-456c0 -172 -101 -274 -273 -274z" />
    <glyph glyph-name="Ugrave" unicode="&#xd9;" horiz-adv-x="668" 
d="M352 804l-116 145h87l104 -145h-75zM335 -16c-173 0 -275 102 -275 274v456h73v-456c0 -126 75 -201 202 -201c126 0 200 75 200 201v456h73v-456c0 -172 -101 -274 -273 -274z" />
    <glyph glyph-name="Uhungarumlaut" unicode="&#x170;" horiz-adv-x="668" 
d="M208 777l104 145h87l-116 -145h-75zM371 777l104 145h87l-116 -145h-75zM335 -16c-173 0 -275 102 -275 274v456h73v-456c0 -126 75 -201 202 -201c126 0 200 75 200 201v456h73v-456c0 -172 -101 -274 -273 -274z" />
    <glyph glyph-name="Umacron" unicode="&#x16a;" horiz-adv-x="668" 
d="M138 859h394v-59h-394v59zM335 -16c-173 0 -275 102 -275 274v456h73v-456c0 -126 75 -201 202 -201c126 0 200 75 200 201v456h73v-456c0 -172 -101 -274 -273 -274z" />
    <glyph glyph-name="Uogonek" unicode="&#x172;" horiz-adv-x="668" 
d="M535 714h73v-456c0 -135 -62 -226 -171 -260c-69 -102 22 -102 79 -73v-61c-65 -34 -211 -17 -132 123c-15 -2 -32 -3 -49 -3c-173 0 -275 102 -275 274v456h73v-456c0 -126 75 -201 202 -201c126 0 200 75 200 201v456z" />
    <glyph glyph-name="Uring" unicode="&#x16e;" horiz-adv-x="668" 
d="M334 802c-48 0 -87 41 -87 88c0 44 39 85 87 85c45 0 86 -41 86 -85c0 -47 -41 -88 -86 -88zM334 845c23 0 43 20 43 45c0 22 -20 42 -43 42c-25 0 -44 -20 -44 -42c0 -25 19 -45 44 -45zM335 -16c-173 0 -275 102 -275 274v456h73v-456c0 -126 75 -201 202 -201
c126 0 200 75 200 201v456h73v-456c0 -172 -101 -274 -273 -274z" />
    <glyph glyph-name="V" unicode="V" horiz-adv-x="681" 
d="M301 0l-301 714h79l262 -620l261 620h79l-301 -714h-79z" />
    <glyph glyph-name="W" unicode="W" horiz-adv-x="979" 
d="M214 0l-239 714h73l203 -605l202 605h73l203 -605l202 605h73l-239 -714h-73l-202 605l-203 -605h-73z" />
    <glyph glyph-name="Wacute" unicode="&#x1e82;" horiz-adv-x="979" 
d="M476 804h-75l104 145h87zM214 0l-239 714h73l203 -605l202 605h73l203 -605l202 605h73l-239 -714h-73l-202 605l-203 -605h-73z" />
    <glyph glyph-name="Wcircumflex" unicode="&#x174;" horiz-adv-x="979" 
d="M569 796l-78 88l-79 -88l-40 28l104 134h29l104 -134zM214 0l-239 714h73l203 -605l202 605h73l203 -605l202 605h73l-239 -714h-73l-202 605l-203 -605h-73z" />
    <glyph glyph-name="Wdieresis" unicode="&#x1e84;" horiz-adv-x="979" 
d="M394 804c-26 0 -46 21 -46 47c0 23 20 44 46 44c24 0 45 -21 45 -44c0 -26 -21 -47 -45 -47zM587 804c-26 0 -46 21 -46 47c0 23 20 44 46 44c24 0 45 -21 45 -44c0 -26 -21 -47 -45 -47zM214 0l-239 714h73l203 -605l202 605h73l203 -605l202 605h73l-239 -714h-73
l-202 605l-203 -605h-73z" />
    <glyph glyph-name="Wgrave" unicode="&#x1e80;" horiz-adv-x="979" 
d="M508 804l-116 145h87l104 -145h-75zM214 0l-239 714h73l203 -605l202 605h73l203 -605l202 605h73l-239 -714h-73l-202 605l-203 -605h-73z" />
    <glyph glyph-name="X" unicode="X" horiz-adv-x="654" 
d="M644 0h-94l-223 295l-223 -295h-94l270 357l-270 357h94l223 -295l223 295h94l-270 -357z" />
    <glyph glyph-name="Y" unicode="Y" horiz-adv-x="574" 
d="M145 0l102 209l-247 505h79l208 -425l208 425h79l-350 -714h-79z" />
    <glyph glyph-name="Yacute" unicode="&#xdd;" horiz-adv-x="574" 
d="M288 804h-75l104 145h87zM145 0l102 209l-247 505h79l208 -425l208 425h79l-350 -714h-79z" />
    <glyph glyph-name="Ycircumflex" unicode="&#x176;" horiz-adv-x="574" 
d="M381 796l-78 88l-79 -88l-40 28l104 134h29l104 -134zM145 0l102 209l-247 505h79l208 -425l208 425h79l-350 -714h-79z" />
    <glyph glyph-name="Ydieresis" unicode="&#x178;" horiz-adv-x="574" 
d="M206 804c-26 0 -46 21 -46 47c0 23 20 44 46 44c24 0 45 -21 45 -44c0 -26 -21 -47 -45 -47zM399 804c-26 0 -46 21 -46 47c0 23 20 44 46 44c24 0 45 -21 45 -44c0 -26 -21 -47 -45 -47zM145 0l102 209l-247 505h79l208 -425l208 425h79l-350 -714h-79z" />
    <glyph glyph-name="Ygrave" unicode="&#x1ef2;" horiz-adv-x="574" 
d="M320 804l-116 145h87l104 -145h-75zM145 0l102 209l-247 505h79l208 -425l208 425h79l-350 -714h-79z" />
    <glyph glyph-name="Z" unicode="Z" horiz-adv-x="666" 
d="M50 0v68l468 578h-452v68h545v-68l-468 -578h465v-68h-558z" />
    <glyph glyph-name="Zacute" unicode="&#x179;" horiz-adv-x="666" 
d="M318 804h-75l104 145h87zM50 0v68l468 578h-452v68h545v-68l-468 -578h465v-68h-558z" />
    <glyph glyph-name="Zcaron" unicode="&#x17d;" horiz-adv-x="666" 
d="M412 983l40 -28l-104 -134h-29l-104 134l40 28l79 -88zM50 0v68l468 578h-452v68h545v-68l-468 -578h465v-68h-558z" />
    <glyph glyph-name="Zdotaccent" unicode="&#x17b;" horiz-adv-x="666" 
d="M332 803c-27 0 -48 22 -48 49c0 24 21 46 48 46c25 0 47 -22 47 -46c0 -27 -22 -49 -47 -49zM50 0v68l468 578h-452v68h545v-68l-468 -578h465v-68h-558z" />
    <glyph glyph-name="a" unicode="a" horiz-adv-x="566" 
d="M263 -11c-125 0 -228 107 -228 230c0 125 103 228 228 228c67 0 126 -31 166 -79v72h67v-442h-67v72c-40 -49 -99 -81 -166 -81zM261 55c87 0 164 77 164 164c0 89 -77 162 -164 162c-89 0 -156 -73 -156 -162c0 -87 67 -164 156 -164z" />
    <glyph glyph-name="aacute" unicode="&#xe1;" horiz-adv-x="566" 
d="M254 545h-75l104 145h87zM263 -11c-125 0 -228 107 -228 230c0 125 103 228 228 228c67 0 126 -31 166 -79v72h67v-442h-67v72c-40 -49 -99 -81 -166 -81zM261 55c87 0 164 77 164 164c0 89 -77 162 -164 162c-89 0 -156 -73 -156 -162c0 -87 67 -164 156 -164z" />
    <glyph glyph-name="abreve" unicode="&#x103;" horiz-adv-x="566" 
d="M345 663h64c7 -71 -51 -121 -141 -121c-91 0 -149 50 -142 121h62c4 -39 33 -62 80 -62c45 0 73 23 77 62zM263 -11c-125 0 -228 107 -228 230c0 125 103 228 228 228c67 0 126 -31 166 -79v72h67v-442h-67v72c-40 -49 -99 -81 -166 -81zM261 55c87 0 164 77 164 164
c0 89 -77 162 -164 162c-89 0 -156 -73 -156 -162c0 -87 67 -164 156 -164z" />
    <glyph glyph-name="acircumflex" unicode="&#xe2;" horiz-adv-x="566" 
d="M347 537l-78 88l-79 -88l-40 28l104 134h29l104 -134zM263 -11c-125 0 -228 107 -228 230c0 125 103 228 228 228c67 0 126 -31 166 -79v72h67v-442h-67v72c-40 -49 -99 -81 -166 -81zM261 55c87 0 164 77 164 164c0 89 -77 162 -164 162c-89 0 -156 -73 -156 -162
c0 -87 67 -164 156 -164z" />
    <glyph glyph-name="adieresis" unicode="&#xe4;" horiz-adv-x="566" 
d="M172 545c-26 0 -46 21 -46 47c0 23 20 44 46 44c24 0 45 -21 45 -44c0 -26 -21 -47 -45 -47zM365 545c-26 0 -46 21 -46 47c0 23 20 44 46 44c24 0 45 -21 45 -44c0 -26 -21 -47 -45 -47zM263 -11c-125 0 -228 107 -228 230c0 125 103 228 228 228c67 0 126 -31 166 -79
v72h67v-442h-67v72c-40 -49 -99 -81 -166 -81zM261 55c87 0 164 77 164 164c0 89 -77 162 -164 162c-89 0 -156 -73 -156 -162c0 -87 67 -164 156 -164z" />
    <glyph glyph-name="agrave" unicode="&#xe0;" horiz-adv-x="566" 
d="M286 545l-116 145h87l104 -145h-75zM263 -11c-125 0 -228 107 -228 230c0 125 103 228 228 228c67 0 126 -31 166 -79v72h67v-442h-67v72c-40 -49 -99 -81 -166 -81zM261 55c87 0 164 77 164 164c0 89 -77 162 -164 162c-89 0 -156 -73 -156 -162c0 -87 67 -164 156 -164
z" />
    <glyph glyph-name="amacron" unicode="&#x101;" horiz-adv-x="566" 
d="M72 600h394v-59h-394v59zM263 -11c-125 0 -228 107 -228 230c0 125 103 228 228 228c67 0 126 -31 166 -79v72h67v-442h-67v72c-40 -49 -99 -81 -166 -81zM261 55c87 0 164 77 164 164c0 89 -77 162 -164 162c-89 0 -156 -73 -156 -162c0 -87 67 -164 156 -164z" />
    <glyph glyph-name="aogonek" unicode="&#x105;" horiz-adv-x="566" 
d="M263 -11c-125 0 -228 107 -228 230c0 125 103 228 228 228c67 0 126 -31 166 -79v72h67v-442h-67v72c-40 -49 -99 -81 -166 -81zM261 55c87 0 164 77 164 164c0 89 -77 162 -164 162c-89 0 -156 -73 -156 -162c0 -87 67 -164 156 -164zM666 -65v-61
c-67 -35 -220 -16 -124 136h46c-71 -104 21 -104 78 -75z" />
    <glyph glyph-name="aring" unicode="&#xe5;" horiz-adv-x="566" 
d="M268 543c-48 0 -87 41 -87 88c0 44 39 85 87 85c45 0 86 -41 86 -85c0 -47 -41 -88 -86 -88zM268 586c23 0 43 20 43 45c0 22 -20 42 -43 42c-25 0 -44 -20 -44 -42c0 -25 19 -45 44 -45zM263 -11c-125 0 -228 107 -228 230c0 125 103 228 228 228c67 0 126 -31 166 -79
v72h67v-442h-67v72c-40 -49 -99 -81 -166 -81zM261 55c87 0 164 77 164 164c0 89 -77 162 -164 162c-89 0 -156 -73 -156 -162c0 -87 67 -164 156 -164z" />
    <glyph glyph-name="atilde" unicode="&#xe3;" horiz-adv-x="566" 
d="M316 535c-50 0 -60 42 -90 42c-35 0 -36 -36 -36 -36h-62c0 21 16 93 98 93c56 0 62 -42 90 -42c35 0 36 36 36 36h62c0 -21 -16 -93 -98 -93zM263 -11c-125 0 -228 107 -228 230c0 125 103 228 228 228c67 0 126 -31 166 -79v72h67v-442h-67v72
c-40 -49 -99 -81 -166 -81zM261 55c87 0 164 77 164 164c0 89 -77 162 -164 162c-89 0 -156 -73 -156 -162c0 -87 67 -164 156 -164z" />
    <glyph glyph-name="ae" unicode="&#xe6;" horiz-adv-x="1067" 
d="M885 219v-31h-383c14 -73 77 -133 155 -133c51 0 94 25 122 61h83c-37 -76 -116 -127 -205 -127c-63 0 -120 27 -161 69v-60h-67v72c-40 -49 -99 -81 -166 -81c-125 0 -228 107 -228 230c0 125 103 228 228 228c67 0 126 -31 166 -79v72h67v-60c41 41 98 67 161 67
c125 0 228 -103 228 -228zM261 55c87 0 164 77 164 164c0 89 -77 162 -164 162c-89 0 -156 -73 -156 -162c0 -87 67 -164 156 -164zM657 381c-78 0 -140 -56 -155 -129h310c-15 73 -78 129 -155 129z" />
    <glyph glyph-name="b" unicode="b" horiz-adv-x="566" 
d="M70 0v714h67v-346c40 48 99 79 166 79c125 0 228 -103 228 -228c0 -123 -103 -230 -228 -230c-67 0 -126 32 -166 81v-70h-67zM305 55c89 0 156 77 156 164c0 89 -67 162 -156 162c-87 0 -164 -73 -164 -162c0 -87 77 -164 164 -164z" />
    <glyph glyph-name="c" unicode="c" horiz-adv-x="513" 
d="M477 297h-75c-27 50 -78 84 -139 84c-89 0 -158 -73 -158 -162c0 -87 69 -164 158 -164c61 0 112 36 139 86h76c-31 -89 -116 -152 -215 -152c-125 0 -228 107 -228 230c0 125 103 228 228 228c98 0 182 -63 214 -150z" />
    <glyph glyph-name="cacute" unicode="&#x107;" horiz-adv-x="513" 
d="M249 545h-75l104 145h87zM477 297h-75c-27 50 -78 84 -139 84c-89 0 -158 -73 -158 -162c0 -87 69 -164 158 -164c61 0 112 36 139 86h76c-31 -89 -116 -152 -215 -152c-125 0 -228 107 -228 230c0 125 103 228 228 228c98 0 182 -63 214 -150z" />
    <glyph glyph-name="ccaron" unicode="&#x10d;" horiz-adv-x="513" 
d="M343 724l40 -28l-104 -134h-29l-104 134l40 28l79 -88zM477 297h-75c-27 50 -78 84 -139 84c-89 0 -158 -73 -158 -162c0 -87 69 -164 158 -164c61 0 112 36 139 86h76c-31 -89 -116 -152 -215 -152c-125 0 -228 107 -228 230c0 125 103 228 228 228
c98 0 182 -63 214 -150z" />
    <glyph glyph-name="ccedilla" unicode="&#xe7;" horiz-adv-x="513" 
d="M402 141h76c-27 -79 -97 -137 -182 -150l-3 -6c49 -8 84 -40 84 -81c0 -48 -47 -84 -107 -84c-61 0 -108 36 -108 84h50c0 -25 26 -45 58 -45c31 0 56 20 56 45c0 24 -25 44 -56 44h-42l19 42c-118 8 -212 111 -212 229c0 125 103 228 228 228c98 0 182 -63 214 -150h-75
c-27 50 -78 84 -139 84c-89 0 -158 -73 -158 -162c0 -87 69 -164 158 -164c61 0 112 36 139 86z" />
    <glyph glyph-name="cdotaccent" unicode="&#x10b;" horiz-adv-x="513" 
d="M263 544c-27 0 -48 22 -48 49c0 24 21 46 48 46c25 0 47 -22 47 -46c0 -27 -22 -49 -47 -49zM477 297h-75c-27 50 -78 84 -139 84c-89 0 -158 -73 -158 -162c0 -87 69 -164 158 -164c61 0 112 36 139 86h76c-31 -89 -116 -152 -215 -152c-125 0 -228 107 -228 230
c0 125 103 228 228 228c98 0 182 -63 214 -150z" />
    <glyph glyph-name="d" unicode="d" horiz-adv-x="566" 
d="M434 0v70c-40 -49 -99 -81 -166 -81c-125 0 -228 107 -228 230c0 125 103 228 228 228c67 0 126 -31 166 -79v346h67v-714h-67zM266 55c87 0 164 77 164 164c0 89 -77 162 -164 162c-89 0 -156 -73 -156 -162c0 -87 67 -164 156 -164z" />
    <glyph glyph-name="eth" unicode="&#xf0;" 
d="M347 589c162 -138 134 -382 134 -382c-7 -118 -107 -218 -228 -218c-125 0 -228 107 -228 230c0 125 103 228 228 228c51 0 99 -17 137 -47c-17 50 -44 100 -88 137c-15 13 -30 24 -46 34l-34 -64l-51 29l34 63c-41 19 -79 28 -106 34v69c22 -4 73 -8 139 -40l35 65
l52 -28l-36 -67c19 -12 38 -26 58 -43zM253 55c89 0 158 77 158 164c0 89 -69 162 -158 162s-158 -73 -158 -162c0 -87 69 -164 158 -164z" />
    <glyph glyph-name="dcaron" unicode="&#x10f;" horiz-adv-x="566" 
d="M45 535l19 76c-23 7 -39 28 -39 53c0 30 25 55 56 55c30 0 55 -25 55 -55c0 -15 -6 -28 -11 -38l-48 -91h-32zM434 0v70c-40 -49 -99 -81 -166 -81c-125 0 -228 107 -228 230c0 125 103 228 228 228c67 0 126 -31 166 -79v346h67v-714h-67zM266 55c87 0 164 77 164 164
c0 89 -77 162 -164 162c-89 0 -156 -73 -156 -162c0 -87 67 -164 156 -164z" />
    <glyph glyph-name="dcroat" unicode="&#x111;" horiz-adv-x="566" 
d="M104 859h394v-59h-394v59zM434 0v70c-40 -49 -99 -81 -166 -81c-125 0 -228 107 -228 230c0 125 103 228 228 228c67 0 126 -31 166 -79v346h67v-714h-67zM266 55c87 0 164 77 164 164c0 89 -77 162 -164 162c-89 0 -156 -73 -156 -162c0 -87 67 -164 156 -164z" />
    <glyph glyph-name="e" unicode="e" horiz-adv-x="526" 
d="M491 219v-31h-383c14 -73 77 -133 155 -133c51 0 94 25 122 61h83c-37 -76 -116 -127 -205 -127c-125 0 -228 107 -228 230c0 125 103 228 228 228s228 -103 228 -228zM263 381c-78 0 -140 -56 -155 -129h310c-15 73 -78 129 -155 129z" />
    <glyph glyph-name="eacute" unicode="&#xe9;" horiz-adv-x="526" 
d="M371 675l-116 -145h-75l104 145h87zM491 219v-31h-383c14 -73 77 -133 155 -133c51 0 94 25 122 61h83c-37 -76 -116 -127 -205 -127c-125 0 -228 107 -228 230c0 125 103 228 228 228s228 -103 228 -228zM263 381c-78 0 -140 -56 -155 -129h310c-15 73 -78 129 -155 129
z" />
    <glyph glyph-name="ecaron" unicode="&#x11b;" horiz-adv-x="526" 
d="M285 547h-29l-104 134l40 28l79 -88l78 88l40 -28zM491 219v-31h-383c14 -73 77 -133 155 -133c51 0 94 25 122 61h83c-37 -76 -116 -127 -205 -127c-125 0 -228 107 -228 230c0 125 103 228 228 228s228 -103 228 -228zM263 381c-78 0 -140 -56 -155 -129h310
c-15 73 -78 129 -155 129z" />
    <glyph glyph-name="ecircumflex" unicode="&#xea;" horiz-adv-x="526" 
d="M270 610l-79 -88l-40 28l104 134h29l104 -134l-40 -28zM491 219v-31h-383c14 -73 77 -133 155 -133c51 0 94 25 122 61h83c-37 -76 -116 -127 -205 -127c-125 0 -228 107 -228 230c0 125 103 228 228 228s228 -103 228 -228zM263 381c-78 0 -140 -56 -155 -129h310
c-15 73 -78 129 -155 129z" />
    <glyph glyph-name="edieresis" unicode="&#xeb;" horiz-adv-x="526" 
d="M173 530c-26 0 -46 21 -46 47c0 23 20 44 46 44c24 0 45 -21 45 -44c0 -26 -21 -47 -45 -47zM366 530c-26 0 -46 21 -46 47c0 23 20 44 46 44c24 0 45 -21 45 -44c0 -26 -21 -47 -45 -47zM491 219v-31h-383c14 -73 77 -133 155 -133c51 0 94 25 122 61h83
c-37 -76 -116 -127 -205 -127c-125 0 -228 107 -228 230c0 125 103 228 228 228s228 -103 228 -228zM263 381c-78 0 -140 -56 -155 -129h310c-15 73 -78 129 -155 129z" />
    <glyph glyph-name="edotaccent" unicode="&#x117;" horiz-adv-x="526" 
d="M269 529c-27 0 -48 22 -48 49c0 24 21 46 48 46c25 0 47 -22 47 -46c0 -27 -22 -49 -47 -49zM491 219v-31h-383c14 -73 77 -133 155 -133c51 0 94 25 122 61h83c-37 -76 -116 -127 -205 -127c-125 0 -228 107 -228 230c0 125 103 228 228 228s228 -103 228 -228zM263 381
c-78 0 -140 -56 -155 -129h310c-15 73 -78 129 -155 129z" />
    <glyph glyph-name="egrave" unicode="&#xe8;" horiz-adv-x="526" 
d="M362 530h-75l-116 145h87zM491 219v-31h-383c14 -73 77 -133 155 -133c51 0 94 25 122 61h83c-37 -76 -116 -127 -205 -127c-125 0 -228 107 -228 230c0 125 103 228 228 228s228 -103 228 -228zM263 381c-78 0 -140 -56 -155 -129h310c-15 73 -78 129 -155 129z" />
    <glyph glyph-name="emacron" unicode="&#x113;" horiz-adv-x="526" 
d="M467 585v-59h-394v59h394zM491 219v-31h-383c14 -73 77 -133 155 -133c51 0 94 25 122 61h83c-37 -76 -116 -127 -205 -127c-125 0 -228 107 -228 230c0 125 103 228 228 228s228 -103 228 -228zM263 381c-78 0 -140 -56 -155 -129h310c-15 73 -78 129 -155 129z" />
    <glyph glyph-name="eogonek" unicode="&#x119;" horiz-adv-x="526" 
d="M491 219v-31h-383c14 -73 77 -133 155 -133c51 0 94 25 122 61h83c-23 -47 -62 -84 -109 -106h28c-71 -104 21 -104 78 -75v-61c-66 -34 -214 -17 -130 127c-23 -8 -47 -12 -72 -12c-125 0 -228 107 -228 230c0 125 103 228 228 228s228 -103 228 -228zM263 381
c-78 0 -140 -56 -155 -129h310c-15 73 -78 129 -155 129z" />
    <glyph glyph-name="f" unicode="f" horiz-adv-x="290" 
d="M99 0h67v379h89v61h-89v60c0 65 -9 165 94 152v62c-158 22 -161 -106 -161 -214v-60h-59v-61h59v-379z" />
    <glyph glyph-name="g" unicode="g" horiz-adv-x="567" 
d="M432 440h70v-400c0 -173 -103 -250 -228 -250c-99 0 -184 63 -215 152h76c27 -50 78 -86 139 -86c89 0 158 47 158 184v29c-40 -46 -98 -76 -164 -76c-125 0 -228 103 -228 228c0 123 103 230 228 230c66 0 124 -31 164 -78v67zM266 59c87 0 164 73 164 162
c0 87 -77 164 -164 164c-89 0 -156 -77 -156 -164c0 -89 67 -162 156 -162z" />
    <glyph glyph-name="gbreve" unicode="&#x11f;" horiz-adv-x="567" 
d="M278 542c-91 0 -149 50 -142 121h62c4 -39 33 -62 80 -62c45 0 73 23 77 62h64c7 -71 -51 -121 -141 -121zM432 440h70v-400c0 -173 -103 -250 -228 -250c-99 0 -184 63 -215 152h76c27 -50 78 -86 139 -86c89 0 158 47 158 184v29c-40 -46 -98 -76 -164 -76
c-125 0 -228 103 -228 228c0 123 103 230 228 230c66 0 124 -31 164 -78v67zM266 59c87 0 164 73 164 162c0 87 -77 164 -164 164c-89 0 -156 -77 -156 -164c0 -89 67 -162 156 -162z" />
    <glyph glyph-name="gcommaaccent" unicode="&#x123;" horiz-adv-x="567" 
d="M432 440h70v-400c0 -173 -103 -250 -228 -250c-99 0 -184 63 -215 152h76c27 -50 78 -86 139 -86c89 0 158 47 158 184v29c-40 -46 -98 -76 -164 -76c-125 0 -228 103 -228 228c0 123 103 230 228 230c66 0 124 -31 164 -78v67zM266 59c87 0 164 73 164 162
c0 87 -77 164 -164 164c-89 0 -156 -77 -156 -164c0 -89 67 -162 156 -162zM272 -245c30 0 55 -25 55 -55c0 -15 -6 -28 -11 -38l-48 -91h-32l19 76c-23 7 -39 28 -39 53c0 30 25 55 56 55z" />
    <glyph glyph-name="gdotaccent" unicode="&#x121;" horiz-adv-x="567" 
d="M278 544c-27 0 -48 22 -48 49c0 24 21 46 48 46c25 0 47 -22 47 -46c0 -27 -22 -49 -47 -49zM432 440h70v-400c0 -173 -103 -250 -228 -250c-99 0 -184 63 -215 152h76c27 -50 78 -86 139 -86c89 0 158 47 158 184v29c-40 -46 -98 -76 -164 -76c-125 0 -228 103 -228 228
c0 123 103 230 228 230c66 0 124 -31 164 -78v67zM266 59c87 0 164 73 164 162c0 87 -77 164 -164 164c-89 0 -156 -77 -156 -164c0 -89 67 -162 156 -162z" />
    <glyph glyph-name="h" unicode="h" horiz-adv-x="521" 
d="M70 0v754h67v-367c35 38 84 60 144 60c126 0 180 -56 180 -196v-251h-67v251c0 87 -40 130 -113 130c-89 0 -144 -50 -144 -147v-234h-67z" />
    <glyph glyph-name="hbar" unicode="&#x127;" horiz-adv-x="511" 
d="M281 447c126 0 180 -56 180 -196v-251h-67v251c0 87 -40 130 -113 130c-89 0 -144 -50 -144 -147v-234h-67v620h-71v49h71v85h67v-85h127v-49h-127v-233c35 38 84 60 144 60z" />
    <glyph glyph-name="i" unicode="i" horiz-adv-x="215" 
d="M108 529c-27 0 -48 21 -48 48c0 24 21 46 48 46c25 0 47 -22 47 -46c0 -27 -22 -48 -47 -48zM74 0v440h70v-440h-70z" />
    <glyph glyph-name="dotlessi" unicode="&#x131;" horiz-adv-x="170" 
d="M50 0v440h70v-440h-70z" />
    <glyph glyph-name="iacute" unicode="&#xed;" horiz-adv-x="170" 
d="M72 545h-75l104 145h87zM50 0v440h70v-440h-70z" />
    <glyph glyph-name="icircumflex" unicode="&#xee;" horiz-adv-x="170" 
d="M165 537l-78 88l-79 -88l-40 28l104 134h29l104 -134zM50 0v440h70v-440h-70z" />
    <glyph glyph-name="idieresis" unicode="&#xef;" horiz-adv-x="170" 
d="M-10 545c-26 0 -46 21 -46 47c0 23 20 44 46 44c24 0 45 -21 45 -44c0 -26 -21 -47 -45 -47zM183 545c-26 0 -46 21 -46 47c0 23 20 44 46 44c24 0 45 -21 45 -44c0 -26 -21 -47 -45 -47zM50 0v440h70v-440h-70z" />
    <glyph glyph-name="idotaccent" horiz-adv-x="170" 
d="M86 544c-27 0 -48 22 -48 49c0 24 21 46 48 46c25 0 47 -22 47 -46c0 -27 -22 -49 -47 -49zM50 0v440h70v-440h-70z" />
    <glyph glyph-name="igrave" unicode="&#xec;" horiz-adv-x="170" 
d="M104 545l-116 145h87l104 -145h-75zM50 0v440h70v-440h-70z" />
    <glyph glyph-name="ij" unicode="&#x133;" horiz-adv-x="439" 
d="M108 529c-27 0 -48 21 -48 48c0 24 21 46 48 46c25 0 47 -22 47 -46c0 -27 -22 -48 -47 -48zM354 529c-27 0 -48 21 -48 48c0 24 21 46 48 46c25 0 47 -22 47 -46c0 -27 -22 -48 -47 -48zM74 0v440h70v-440h-70zM389 440v-440c2 -126 -60 -204 -173 -204l-1 66
c68 0 106 59 104 138v440h70z" />
    <glyph glyph-name="imacron" unicode="&#x12b;" horiz-adv-x="170" 
d="M-110 600h394v-59h-394v59zM50 0v440h70v-440h-70z" />
    <glyph glyph-name="iogonek" unicode="&#x12f;" horiz-adv-x="170" 
d="M86 544c-27 0 -48 22 -48 49c0 24 21 46 48 46c25 0 47 -22 47 -46c0 -27 -22 -49 -47 -49zM50 0v440h70v-440h-70zM290 -65v-61c-67 -35 -220 -16 -124 136h46c-71 -104 21 -104 78 -75z" />
    <glyph glyph-name="j" unicode="j" horiz-adv-x="224" 
d="M139 529c-27 0 -48 21 -48 48c0 24 21 46 48 46c25 0 47 -22 47 -46c0 -27 -22 -48 -47 -48zM174 440v-440c2 -126 -60 -204 -173 -204l-1 66c68 0 106 59 104 138v440h70z" />
    <glyph glyph-name="k" unicode="k" horiz-adv-x="461" 
d="M65 0h67v184l43 42l196 -226h90l-237 274l181 175h-94l-164 -160h-15v425h-67v-714z" />
    <glyph glyph-name="kcommaaccent" unicode="&#x137;" horiz-adv-x="461" 
d="M65 0h67v184l43 42l196 -226h90l-237 274l181 175h-94l-164 -160h-15v425h-67v-714zM191 -254l19 76c-23 7 -39 28 -39 53c0 30 25 55 56 55c30 0 55 -25 55 -55c0 -15 -6 -28 -11 -38l-48 -91h-32z" />
    <glyph glyph-name="l" unicode="l" horiz-adv-x="197" 
d="M65 0v714h67v-714h-67z" />
    <glyph glyph-name="lacute" unicode="&#x13a;" horiz-adv-x="197" 
d="M82 804h-75l104 145h87zM65 0v714h67v-714h-67z" />
    <glyph glyph-name="lcaron" unicode="&#x13e;" horiz-adv-x="301" 
d="M206 535l19 76c-23 7 -39 28 -39 53c0 30 25 55 56 55c30 0 55 -25 55 -55c0 -15 -6 -28 -11 -38l-48 -91h-32zM65 0v714h67v-714h-67z" />
    <glyph glyph-name="lcommaaccent" unicode="&#x13c;" horiz-adv-x="197" 
d="M65 0v714h67v-714h-67zM56 -254l19 76c-23 7 -39 28 -39 53c0 30 25 55 56 55c30 0 55 -25 55 -55c0 -15 -6 -28 -11 -38l-48 -91h-32z" />
    <glyph glyph-name="ldot" unicode="&#x140;" horiz-adv-x="197" 
d="M65 0v714h67v-714h-67zM256 252c-32 0 -56 28 -56 57c0 26 24 54 56 54c27 0 55 -28 55 -54c0 -29 -27 -57 -55 -57z" />
    <glyph glyph-name="lslash" unicode="&#x142;" horiz-adv-x="197" 
d="M232 440v-63l-100 -51v-326h-67v292l-101 -51v63l101 51v359h67v-325z" />
    <glyph glyph-name="m" unicode="m" horiz-adv-x="791" 
d="M561 447c114 0 165 -56 165 -196v-251h-67v251c0 87 -33 130 -98 130c-81 0 -132 -45 -132 -152v-229h-67v251c0 87 -33 130 -98 130c-81 0 -132 -45 -132 -152v-229h-67v440h67v-53c32 38 77 60 132 60c77 0 125 -25 148 -85c31 54 83 85 149 85z" />
    <glyph glyph-name="n" unicode="n" horiz-adv-x="521" 
d="M70 0v440h67v-53c35 38 84 60 144 60c126 0 180 -56 180 -196v-251h-67v251c0 87 -40 130 -113 130c-89 2 -144 -48 -144 -147v-234h-67z" />
    <glyph glyph-name="nacute" unicode="&#x144;" horiz-adv-x="521" 
d="M249 545h-75l104 145h87zM70 0v440h67v-53c35 38 84 60 144 60c126 0 180 -56 180 -196v-251h-67v251c0 87 -40 130 -113 130c-89 2 -144 -48 -144 -147v-234h-67z" />
    <glyph glyph-name="ncaron" unicode="&#x148;" horiz-adv-x="521" 
d="M343 724l40 -28l-104 -134h-29l-104 134l40 28l79 -88zM70 0v440h67v-53c35 38 84 60 144 60c126 0 180 -56 180 -196v-251h-67v251c0 87 -40 130 -113 130c-89 2 -144 -48 -144 -147v-234h-67z" />
    <glyph glyph-name="ncommaaccent" unicode="&#x146;" horiz-adv-x="521" 
d="M70 0v440h67v-53c35 38 84 60 144 60c126 0 180 -56 180 -196v-251h-67v251c0 87 -40 130 -113 130c-89 2 -144 -48 -144 -147v-234h-67zM259 -254l19 76c-23 7 -39 28 -39 53c0 30 25 55 56 55c30 0 55 -25 55 -55c0 -15 -6 -28 -11 -38l-48 -91h-32z" />
    <glyph glyph-name="eng" unicode="&#x14b;" horiz-adv-x="521" 
d="M281 447c126 0 180 -56 180 -196v-251c-2 -47 -11 -89 -67 -121h-71c57 32 69 74 71 121v251c0 87 -40 130 -113 130c-89 2 -144 -48 -144 -147v-234h-67v440h67v-53c35 38 84 60 144 60z" />
    <glyph glyph-name="ntilde" unicode="&#xf1;" horiz-adv-x="521" 
d="M311 535c-50 0 -60 42 -90 42c-35 0 -36 -36 -36 -36h-62c0 21 16 93 98 93c56 0 62 -42 90 -42c35 0 36 36 36 36h62c0 -21 -16 -93 -98 -93zM70 0v440h67v-53c35 38 84 60 144 60c126 0 180 -56 180 -196v-251h-67v251c0 87 -40 130 -113 130c-89 2 -144 -48 -144 -147
v-234h-67z" />
    <glyph glyph-name="o" unicode="o" horiz-adv-x="526" 
d="M263 -11c-125 0 -228 107 -228 230c0 125 103 228 228 228s228 -103 228 -228c0 -123 -103 -230 -228 -230zM263 381c-89 0 -158 -73 -158 -162c0 -87 69 -164 158 -164s158 77 158 164c0 89 -69 162 -158 162z" />
    <glyph glyph-name="oacute" unicode="&#xf3;" horiz-adv-x="526" 
d="M249 545h-75l104 145h87zM263 -11c-125 0 -228 107 -228 230c0 125 103 228 228 228s228 -103 228 -228c0 -123 -103 -230 -228 -230zM263 381c-89 0 -158 -73 -158 -162c0 -87 69 -164 158 -164s158 77 158 164c0 89 -69 162 -158 162z" />
    <glyph glyph-name="ocircumflex" unicode="&#xf4;" horiz-adv-x="526" 
d="M342 537l-78 88l-79 -88l-40 28l104 134h29l104 -134zM263 -11c-125 0 -228 107 -228 230c0 125 103 228 228 228s228 -103 228 -228c0 -123 -103 -230 -228 -230zM263 381c-89 0 -158 -73 -158 -162c0 -87 69 -164 158 -164s158 77 158 164c0 89 -69 162 -158 162z" />
    <glyph glyph-name="odieresis" unicode="&#xf6;" horiz-adv-x="526" 
d="M167 545c-26 0 -46 21 -46 47c0 23 20 44 46 44c24 0 45 -21 45 -44c0 -26 -21 -47 -45 -47zM360 545c-26 0 -46 21 -46 47c0 23 20 44 46 44c24 0 45 -21 45 -44c0 -26 -21 -47 -45 -47zM263 -11c-125 0 -228 107 -228 230c0 125 103 228 228 228s228 -103 228 -228
c0 -123 -103 -230 -228 -230zM263 381c-89 0 -158 -73 -158 -162c0 -87 69 -164 158 -164s158 77 158 164c0 89 -69 162 -158 162z" />
    <glyph glyph-name="ograve" unicode="&#xf2;" horiz-adv-x="526" 
d="M281 545l-116 145h87l104 -145h-75zM263 -11c-125 0 -228 107 -228 230c0 125 103 228 228 228s228 -103 228 -228c0 -123 -103 -230 -228 -230zM263 381c-89 0 -158 -73 -158 -162c0 -87 69 -164 158 -164s158 77 158 164c0 89 -69 162 -158 162z" />
    <glyph glyph-name="ohungarumlaut" unicode="&#x151;" horiz-adv-x="526" 
d="M137 518l104 145h87l-116 -145h-75zM300 518l104 145h87l-116 -145h-75zM263 -11c-125 0 -228 107 -228 230c0 125 103 228 228 228s228 -103 228 -228c0 -123 -103 -230 -228 -230zM263 381c-89 0 -158 -73 -158 -162c0 -87 69 -164 158 -164s158 77 158 164
c0 89 -69 162 -158 162z" />
    <glyph glyph-name="omacron" unicode="&#x14d;" horiz-adv-x="526" 
d="M67 600h394v-59h-394v59zM263 -11c-125 0 -228 107 -228 230c0 125 103 228 228 228s228 -103 228 -228c0 -123 -103 -230 -228 -230zM263 381c-89 0 -158 -73 -158 -162c0 -87 69 -164 158 -164s158 77 158 164c0 89 -69 162 -158 162z" />
    <glyph glyph-name="oslash" unicode="&#xf8;" horiz-adv-x="506" 
d="M391 511l-29 -87c76 -37 129 -116 129 -205c0 -123 -103 -230 -228 -230c-14 0 -28 1 -42 4l-26 -81l-61 21l27 81c-75 39 -126 118 -126 205c0 125 103 228 228 228c13 0 26 -1 38 -3l29 88zM105 219c0 -58 30 -111 77 -140l98 301c-5 1 -11 1 -17 1
c-89 0 -158 -73 -158 -162zM263 55c89 0 158 77 158 164c0 60 -32 113 -80 141l-99 -304c7 -1 14 -1 21 -1z" />
    <glyph glyph-name="otilde" unicode="&#xf5;" horiz-adv-x="526" 
d="M311 535c-50 0 -60 42 -90 42c-35 0 -36 -36 -36 -36h-62c0 21 16 93 98 93c56 0 62 -42 90 -42c35 0 36 36 36 36h62c0 -21 -16 -93 -98 -93zM263 -11c-125 0 -228 107 -228 230c0 125 103 228 228 228s228 -103 228 -228c0 -123 -103 -230 -228 -230zM263 381
c-89 0 -158 -73 -158 -162c0 -87 69 -164 158 -164s158 77 158 164c0 89 -69 162 -158 162z" />
    <glyph glyph-name="oe" unicode="&#x153;" horiz-adv-x="1012" 
d="M905 219v-31h-383c14 -73 77 -133 155 -133c51 0 94 25 122 61h83c-37 -76 -116 -127 -205 -127c-83 0 -157 47 -196 115c-40 -68 -114 -115 -197 -115c-125 0 -228 107 -228 230c0 125 103 228 228 228c83 0 157 -46 197 -113c39 67 113 113 196 113
c125 0 228 -103 228 -228zM284 55c89 0 158 77 158 164c0 89 -69 162 -158 162s-158 -73 -158 -162c0 -87 69 -164 158 -164zM677 381c-78 0 -140 -56 -155 -129h310c-15 73 -78 129 -155 129z" />
    <glyph glyph-name="p" unicode="p" horiz-adv-x="551" 
d="M293 447c125 0 228 -103 228 -228c0 -123 -103 -230 -228 -230c-67 0 -126 32 -166 81v-270h-67v640h67v-72c40 48 99 79 166 79zM295 55c89 0 156 77 156 164c0 89 -67 162 -156 162c-87 0 -164 -73 -164 -162c0 -87 77 -164 164 -164z" />
    <glyph glyph-name="thorn" unicode="&#xfe;" 
d="M153 595v-148c241 0 338 -65 338 -228c0 -164 -97 -230 -338 -230v-108h-73v714h73zM153 382v-327c191 0 268 47 268 164c0 116 -77 163 -268 163z" />
    <glyph glyph-name="q" unicode="q" horiz-adv-x="566" 
d="M434 -200v270c-40 -49 -99 -81 -166 -81c-125 0 -228 107 -228 230c0 125 103 228 228 228c67 0 126 -31 166 -79v72h67v-640h-67zM266 55c87 0 164 77 164 164c0 89 -77 162 -164 162c-89 0 -156 -73 -156 -162c0 -87 67 -164 156 -164z" />
    <glyph glyph-name="r" unicode="r" horiz-adv-x="306" 
d="M137 440v-60c36 41 88 67 149 67v-66c-78 0 -149 -48 -149 -138v-243h-67v440h67z" />
    <glyph glyph-name="racute" unicode="&#x155;" horiz-adv-x="306" 
d="M159 545h-75l104 145h87zM137 440v-60c36 41 88 67 149 67v-66c-78 0 -149 -48 -149 -138v-243h-67v440h67z" />
    <glyph glyph-name="rcaron" unicode="&#x159;" horiz-adv-x="306" 
d="M253 724l40 -28l-104 -134h-29l-104 134l40 28l79 -88zM137 440v-60c36 41 88 67 149 67v-66c-78 0 -149 -48 -149 -138v-243h-67v440h67z" />
    <glyph glyph-name="rcommaaccent" unicode="&#x157;" horiz-adv-x="306" 
d="M137 440v-60c36 41 88 67 149 67v-66c-78 0 -149 -48 -149 -138v-243h-67v440h67zM131 -254l19 76c-23 7 -39 28 -39 53c0 30 25 55 56 55c30 0 55 -25 55 -55c0 -15 -6 -28 -11 -38l-48 -91h-32z" />
    <glyph glyph-name="s" unicode="s" horiz-adv-x="418" 
d="M361 332h-61c-6 30 -39 52 -91 52c-53 0 -90 -25 -90 -58s29 -52 101 -66c113 -23 158 -62 158 -135c0 -77 -59 -132 -169 -132c-99 0 -165 55 -169 132h61c6 -37 51 -69 108 -69c65 0 108 29 108 69c0 42 -28 56 -108 72c-105 21 -152 59 -152 129c0 67 52 121 152 121
c87 0 145 -48 152 -115z" />
    <glyph glyph-name="sacute" unicode="&#x15b;" horiz-adv-x="418" 
d="M195 545h-75l104 145h87zM361 332h-61c-6 30 -39 52 -91 52c-53 0 -90 -25 -90 -58s29 -52 101 -66c113 -23 158 -62 158 -135c0 -77 -59 -132 -169 -132c-99 0 -165 55 -169 132h61c6 -37 51 -69 108 -69c65 0 108 29 108 69c0 42 -28 56 -108 72
c-105 21 -152 59 -152 129c0 67 52 121 152 121c87 0 145 -48 152 -115z" />
    <glyph glyph-name="scaron" unicode="&#x161;" horiz-adv-x="418" 
d="M289 724l40 -28l-104 -134h-29l-104 134l40 28l79 -88zM361 332h-61c-6 30 -39 52 -91 52c-53 0 -90 -25 -90 -58s29 -52 101 -66c113 -23 158 -62 158 -135c0 -77 -59 -132 -169 -132c-99 0 -165 55 -169 132h61c6 -37 51 -69 108 -69c65 0 108 29 108 69
c0 42 -28 56 -108 72c-105 21 -152 59 -152 129c0 67 52 121 152 121c87 0 145 -48 152 -115z" />
    <glyph glyph-name="scedilla" unicode="&#x15f;" horiz-adv-x="418" 
d="M378 125c0 -71 -50 -124 -145 -131l-4 -9c49 -8 84 -40 84 -81c0 -48 -47 -84 -107 -84c-61 0 -108 36 -108 84h50c0 -25 26 -45 58 -45c31 0 56 20 56 45c0 24 -25 44 -56 44h-42l21 46c-85 8 -141 60 -145 131h61c6 -37 51 -69 108 -69c65 0 108 29 108 69
c0 42 -28 56 -108 72c-105 21 -152 59 -152 129c0 67 52 121 152 121c87 0 145 -48 152 -115h-61c-6 30 -39 52 -91 52c-53 0 -90 -25 -90 -58s29 -52 101 -66c113 -23 158 -62 158 -135z" />
    <glyph glyph-name="scommaaccent" unicode="&#x219;" horiz-adv-x="418" 
d="M361 332h-61c-6 30 -39 52 -91 52c-53 0 -90 -25 -90 -58s29 -52 101 -66c113 -23 158 -62 158 -135c0 -77 -59 -132 -169 -132c-99 0 -165 55 -169 132h61c6 -37 51 -69 108 -69c65 0 108 29 108 69c0 42 -28 56 -108 72c-105 21 -152 59 -152 129c0 67 52 121 152 121
c87 0 145 -48 152 -115zM167 -254l19 76c-23 7 -39 28 -39 53c0 30 25 55 56 55c30 0 55 -25 55 -55c0 -15 -6 -28 -11 -38l-48 -91h-32z" />
    <glyph glyph-name="germandbls" unicode="&#xdf;" horiz-adv-x="488" 
d="M67 0v562c0 116 88 152 153 152c106 0 176 -68 176 -170c0 -85 -63 -123 -63 -170c0 -41 115 -87 115 -204c0 -140 -85 -181 -222 -181v70c91 0 152 23 152 111s-115 129 -115 204c0 74 63 106 63 170s-46 100 -106 100c-49 0 -83 -37 -83 -83v-561h-70z" />
    <glyph glyph-name="t" unicode="t" horiz-adv-x="282" 
d="M262 379h-99v-379h-67v379h-66v61h66v173h67v-173h99v-61z" />
    <glyph glyph-name="tbar" unicode="&#x167;" horiz-adv-x="282" 
d="M262 379h-99v-96h99v-41h-99v-242h-67v242h-66v41h66v96h-66v61h66v173h67v-173h99v-61z" />
    <glyph glyph-name="tcaron" unicode="&#x165;" horiz-adv-x="282" 
d="M218 535l19 76c-23 7 -39 28 -39 53c0 30 25 55 56 55c30 0 55 -25 55 -55c0 -15 -6 -28 -11 -38l-48 -91h-32zM262 379h-99v-379h-67v379h-66v61h66v173h67v-173h99v-61z" />
    <glyph glyph-name="tcedilla" unicode="&#x163;" horiz-adv-x="282" 
d="M163 0h-1l-7 -15c49 -8 84 -40 84 -81c0 -48 -47 -84 -107 -84c-61 0 -108 36 -108 84h50c0 -25 26 -45 58 -45c31 0 56 20 56 45c0 24 -25 44 -56 44h-42l24 52h-18v379h-66v61h66v173h67v-173h99v-61h-99v-379z" />
    <glyph glyph-name="tcommaaccent" unicode="&#x21b;" horiz-adv-x="282" 
d="M262 379h-99v-379h-67v379h-66v61h66v173h67v-173h99v-61zM93 -254l19 76c-23 7 -39 28 -39 53c0 30 25 55 56 55c30 0 55 -25 55 -55c0 -15 -6 -28 -11 -38l-48 -91h-32z" />
    <glyph glyph-name="u" unicode="u" horiz-adv-x="521" 
d="M451 440v-440h-67v53c-35 -38 -84 -60 -144 -60c-126 0 -180 56 -180 196v251h67v-251c0 -87 40 -130 113 -130c89 0 144 50 144 147v234h67z" />
    <glyph glyph-name="uacute" unicode="&#xfa;" horiz-adv-x="521" 
d="M238 545h-75l104 145h87zM451 440v-440h-67v53c-35 -38 -84 -60 -144 -60c-126 0 -180 56 -180 196v251h67v-251c0 -87 40 -130 113 -130c89 0 144 50 144 147v234h67z" />
    <glyph glyph-name="ucircumflex" unicode="&#xfb;" horiz-adv-x="521" 
d="M331 537l-78 88l-79 -88l-40 28l104 134h29l104 -134zM451 440v-440h-67v53c-35 -38 -84 -60 -144 -60c-126 0 -180 56 -180 196v251h67v-251c0 -87 40 -130 113 -130c89 0 144 50 144 147v234h67z" />
    <glyph glyph-name="udieresis" unicode="&#xfc;" horiz-adv-x="521" 
d="M156 545c-26 0 -46 21 -46 47c0 23 20 44 46 44c24 0 45 -21 45 -44c0 -26 -21 -47 -45 -47zM349 545c-26 0 -46 21 -46 47c0 23 20 44 46 44c24 0 45 -21 45 -44c0 -26 -21 -47 -45 -47zM451 440v-440h-67v53c-35 -38 -84 -60 -144 -60c-126 0 -180 56 -180 196v251h67
v-251c0 -87 40 -130 113 -130c89 0 144 50 144 147v234h67z" />
    <glyph glyph-name="ugrave" unicode="&#xf9;" horiz-adv-x="521" 
d="M270 545l-116 145h87l104 -145h-75zM451 440v-440h-67v53c-35 -38 -84 -60 -144 -60c-126 0 -180 56 -180 196v251h67v-251c0 -87 40 -130 113 -130c89 0 144 50 144 147v234h67z" />
    <glyph glyph-name="uhungarumlaut" unicode="&#x171;" horiz-adv-x="521" 
d="M126 518l104 145h87l-116 -145h-75zM289 518l104 145h87l-116 -145h-75zM451 440v-440h-67v53c-35 -38 -84 -60 -144 -60c-126 0 -180 56 -180 196v251h67v-251c0 -87 40 -130 113 -130c89 0 144 50 144 147v234h67z" />
    <glyph glyph-name="umacron" unicode="&#x16b;" horiz-adv-x="521" 
d="M56 600h394v-59h-394v59zM451 440v-440h-67v53c-35 -38 -84 -60 -144 -60c-126 0 -180 56 -180 196v251h67v-251c0 -87 40 -130 113 -130c89 0 144 50 144 147v234h67z" />
    <glyph glyph-name="uogonek" unicode="&#x173;" horiz-adv-x="521" 
d="M451 0h-8c-71 -104 21 -104 78 -75v-61c-67 -35 -220 -16 -124 136h-13v53c-35 -38 -84 -60 -144 -60c-126 0 -180 56 -180 196v251h67v-251c0 -87 40 -130 113 -130c89 0 144 50 144 147v234h67v-440z" />
    <glyph glyph-name="uring" unicode="&#x16f;" horiz-adv-x="521" 
d="M252 543c-48 0 -87 41 -87 88c0 44 39 85 87 85c45 0 86 -41 86 -85c0 -47 -41 -88 -86 -88zM252 586c23 0 43 20 43 45c0 22 -20 42 -43 42c-25 0 -44 -20 -44 -42c0 -25 19 -45 44 -45zM451 440v-440h-67v53c-35 -38 -84 -60 -144 -60c-126 0 -180 56 -180 196v251h67
v-251c0 -87 40 -130 113 -130c89 0 144 50 144 147v234h67z" />
    <glyph glyph-name="v" unicode="v" horiz-adv-x="447" 
d="M187 0l-181 440h73l145 -351l144 351h73l-181 -440h-73z" />
    <glyph glyph-name="w" unicode="w" horiz-adv-x="722" 
d="M722 440l-163 -440h-70l-128 346l-128 -346h-70l-163 440h70l128 -346l128 346h70l128 -346l128 346h70z" />
    <glyph glyph-name="wacute" unicode="&#x1e83;" horiz-adv-x="722" 
d="M346 545h-75l104 145h87zM722 440l-163 -440h-70l-128 346l-128 -346h-70l-163 440h70l128 -346l128 346h70l128 -346l128 346h70z" />
    <glyph glyph-name="wcircumflex" unicode="&#x175;" horiz-adv-x="722" 
d="M439 537l-78 88l-79 -88l-40 28l104 134h29l104 -134zM722 440l-163 -440h-70l-128 346l-128 -346h-70l-163 440h70l128 -346l128 346h70l128 -346l128 346h70z" />
    <glyph glyph-name="wdieresis" unicode="&#x1e85;" horiz-adv-x="722" 
d="M264 545c-26 0 -46 21 -46 47c0 23 20 44 46 44c24 0 45 -21 45 -44c0 -26 -21 -47 -45 -47zM457 545c-26 0 -46 21 -46 47c0 23 20 44 46 44c24 0 45 -21 45 -44c0 -26 -21 -47 -45 -47zM722 440l-163 -440h-70l-128 346l-128 -346h-70l-163 440h70l128 -346l128 346h70
l128 -346l128 346h70z" />
    <glyph glyph-name="wgrave" unicode="&#x1e81;" horiz-adv-x="722" 
d="M378 545l-116 145h87l104 -145h-75zM722 440l-163 -440h-70l-128 346l-128 -346h-70l-163 440h70l128 -346l128 346h70l128 -346l128 346h70z" />
    <glyph glyph-name="x" unicode="x" horiz-adv-x="458" 
d="M15 0l170 227l-160 213h82l119 -158l119 158h82l-160 -213l171 -227h-82l-130 172l-129 -172h-82z" />
    <glyph glyph-name="y" unicode="y" horiz-adv-x="475" 
d="M280 49l-125 -249h-79l125 250l-195 390h79l155 -311l156 311h79z" />
    <glyph glyph-name="yacute" unicode="&#xfd;" horiz-adv-x="475" 
d="M220 530h-75l104 145h87zM280 49l-125 -249h-79l125 250l-195 390h79l155 -311l156 311h79z" />
    <glyph glyph-name="ycircumflex" unicode="&#x177;" horiz-adv-x="475" 
d="M313 522l-78 88l-79 -88l-40 28l104 134h29l104 -134zM280 49l-125 -249h-79l125 250l-195 390h79l155 -311l156 311h79z" />
    <glyph glyph-name="ydieresis" unicode="&#xff;" horiz-adv-x="475" 
d="M138 530c-26 0 -46 21 -46 47c0 23 20 44 46 44c24 0 45 -21 45 -44c0 -26 -21 -47 -45 -47zM331 530c-26 0 -46 21 -46 47c0 23 20 44 46 44c24 0 45 -21 45 -44c0 -26 -21 -47 -45 -47zM280 49l-125 -249h-79l125 250l-195 390h79l155 -311l156 311h79z" />
    <glyph glyph-name="ygrave" unicode="&#x1ef3;" horiz-adv-x="475" 
d="M252 530l-116 145h87l104 -145h-75zM280 49l-125 -249h-79l125 250l-195 390h79l155 -311l156 311h79z" />
    <glyph glyph-name="z" unicode="z" horiz-adv-x="427" 
d="M387 64v-64h-337v64l247 312h-247v64h331v-64l-247 -312h253z" />
    <glyph glyph-name="zacute" unicode="&#x17a;" horiz-adv-x="427" 
d="M196 530h-75l104 145h87zM387 64v-64h-337v64l247 312h-247v64h331v-64l-247 -312h253z" />
    <glyph glyph-name="zcaron" unicode="&#x17e;" horiz-adv-x="427" 
d="M290 709l40 -28l-104 -134h-29l-104 134l40 28l79 -88zM387 64v-64h-337v64l247 312h-247v64h331v-64l-247 -312h253z" />
    <glyph glyph-name="zdotaccent" unicode="&#x17c;" horiz-adv-x="427" 
d="M210 529c-27 0 -48 22 -48 49c0 24 21 46 48 46c25 0 47 -22 47 -46c0 -27 -22 -49 -47 -49zM387 64v-64h-337v64l247 312h-247v64h331v-64l-247 -312h253z" />
    <glyph glyph-name="f_l" horiz-adv-x="441" 
d="M311 714h65v-714h-67v652c-152 22 -143 -87 -143 -152v-60h79v-61h-79v-379h-67v379h-59v61h59v60c0 108 3 243 212 214z" />
    <glyph glyph-name="ordfeminine" unicode="&#xaa;" horiz-adv-x="566" 
d="M263 -11c-125 0 -228 107 -228 230c0 125 103 228 228 228c67 0 126 -31 166 -79v72h67v-442h-67v72c-40 -49 -99 -81 -166 -81zM261 55c87 0 164 77 164 164c0 89 -77 162 -164 162c-89 0 -156 -73 -156 -162c0 -87 67 -164 156 -164z" />
    <glyph glyph-name="ordmasculine" unicode="&#xba;" horiz-adv-x="526" 
d="M263 -11c-125 0 -228 107 -228 230c0 125 103 228 228 228s228 -103 228 -228c0 -123 -103 -230 -228 -230zM263 381c-89 0 -158 -73 -158 -162c0 -87 69 -164 158 -164s158 77 158 164c0 89 -69 162 -158 162z" />
    <glyph glyph-name="Delta" unicode="&#x394;" horiz-adv-x="737" 
d="M40 0v71l289 643h79l289 -643v-71h-657zM118 70h501l-250 556z" />
    <glyph glyph-name="Omega" unicode="&#x3a9;" horiz-adv-x="804" 
d="M30 0v70h160c-85 68 -140 172 -140 289c0 196 147 362 352 362s352 -166 352 -362c0 -117 -55 -221 -140 -289h160v-70h-301v76c120 38 205 150 205 283c0 157 -111 289 -276 289s-276 -132 -276 -289c0 -133 86 -245 206 -283v-76h-302z" />
    <glyph glyph-name="mu" unicode="&#x3bc;" horiz-adv-x="521" 
d="M384 440h67v-440h-67v53c-35 -38 -84 -60 -144 -60c-48 0 -85 8 -113 26v-119h-67v540h67v-251c0 -87 40 -130 113 -130c89 0 144 50 144 147v234z" />
    <glyph glyph-name="pi" unicode="&#x3c0;" horiz-adv-x="610" 
d="M575 507v-67h-53l3 -440h-70l-3 440h-295l3 -440h-70l-3 440h-52v67h540z" />
    <glyph glyph-name="zero" unicode="0" horiz-adv-x="670" 
d="M335 -11c203 0 300 137 300 370c0 228 -101 371 -300 371c-203 0 -300 -143 -300 -371c0 -233 97 -370 300 -370zM335 657c158 0 228 -116 228 -298c0 -187 -70 -297 -228 -297s-228 110 -228 297c0 182 70 298 228 298z" />
    <glyph glyph-name="one" unicode="1" horiz-adv-x="270" 
d="M120 0v644l-80 5v65h150v-714h-70z" />
    <glyph glyph-name="two" unicode="2" horiz-adv-x="519" 
d="M40 0v101c0 240 360 240 360 411c0 81 -46 145 -137 145c-89 0 -143 -62 -143 -145h-76c-3 124 82 218 219 218c117 0 216 -70 216 -218c0 -232 -357 -232 -357 -411v-31h353v-70h-435z" />
    <glyph glyph-name="three" unicode="3" horiz-adv-x="495" 
d="M429 714l-163 -274c115 -18 189 -99 189 -218c0 -133 -91 -222 -228 -222h-187v70h187c91 0 152 61 152 152s-61 152 -152 152h-79l160 270h-268v70h389z" />
    <glyph glyph-name="four" unicode="4" horiz-adv-x="574" 
d="M358 0v199h-328v70l322 445h79v-445h103v-70h-103v-199h-73zM117 269h241v336z" />
    <glyph glyph-name="five" unicode="5" horiz-adv-x="523" 
d="M146 644v-209c33 18 71 28 111 28c146 3 236 -104 236 -233c0 -127 -107 -232 -236 -232c-112 0 -205 79 -227 184h72c20 -67 82 -116 155 -116c91 0 163 74 163 164c0 91 -55 168 -163 165c-43 0 -82 -17 -111 -44h-73v363h360v-70h-287z" />
    <glyph glyph-name="six" unicode="6" horiz-adv-x="535" 
d="M267 -6c-128 0 -232 104 -232 232c0 32 7 63 18 91c48 117 201 397 201 397h78c-9 -14 -93 -165 -146 -270c25 10 53 15 81 15c129 0 233 -104 233 -233c0 -128 -104 -232 -233 -232zM267 62c91 0 163 74 163 164c0 91 -72 165 -163 165c-90 0 -162 -74 -162 -165
c0 -90 72 -164 162 -164z" />
    <glyph glyph-name="seven" unicode="7" horiz-adv-x="503" 
d="M463 644l-290 -644h-83l290 644h-350v70h433v-70z" />
    <glyph glyph-name="eight" unicode="8" horiz-adv-x="536" 
d="M386 382c65 -34 109 -98 110 -180c-1 -123 -104 -210 -229 -210s-228 87 -227 210c-1 82 43 146 109 180c-54 34 -92 90 -91 156c-1 110 99 186 209 186s210 -76 211 -186c-1 -66 -38 -122 -92 -156zM267 656c-79 0 -138 -39 -137 -118c-1 -77 58 -121 137 -121
s139 44 139 121c0 79 -60 118 -139 118zM267 58c89 0 158 57 159 144c-1 89 -70 142 -159 142s-158 -53 -157 -142c-1 -87 68 -144 157 -144z" />
    <glyph glyph-name="nine" unicode="9" horiz-adv-x="515" 
d="M200 0l129 272c-24 -9 -50 -13 -76 -13c-129 0 -233 104 -233 233c0 128 104 232 233 232c128 0 232 -104 232 -232c0 -32 -7 -63 -18 -91l-189 -401h-78zM90 492c0 -91 72 -165 163 -165c90 0 162 74 162 165c0 90 -72 164 -162 164c-91 0 -163 -74 -163 -164z" />
    <glyph glyph-name="fraction" unicode="&#x2044;" horiz-adv-x="629" 
d="M30 0l491 697h78l-490 -697h-79z" />
    <glyph glyph-name="onehalf" unicode="&#xbd;" horiz-adv-x="735" 
d="M675 750l-569 -799h-71l570 799h70zM196 714v-355h-54v302l-49 8v45h103zM525 54h170v-54h-225v72c0 52 29 93 99 110c53 13 76 30 76 67s-17 52 -55 52c-50 0 -62 -19 -60 -49h-57c-3 58 38 104 117 104c67 0 110 -40 110 -107c0 -65 -40 -100 -126 -122
c-40 -10 -49 -29 -49 -55v-18z" />
    <glyph glyph-name="onequarter" unicode="&#xbc;" horiz-adv-x="700" 
d="M670 750l-569 -799h-71l570 799h70zM177 714v-355h-54v302l-49 8v45h103zM572 0v87h-164v43l163 226h50v-222h51v-47h-51v-87h-49zM470 134h102v144z" />
    <glyph glyph-name="threequarters" unicode="&#xbe;" horiz-adv-x="700" 
d="M670 750l-569 -799h-71l570 799h70zM241 714l-82 -131c54 -11 91 -53 91 -113c0 -68 -50 -117 -120 -117h-100v47h100c43 0 70 27 70 70c0 44 -27 70 -70 70h-53l80 127h-127v47h211zM562 0v87h-164v43l163 226h50v-222h51v-47h-51v-87h-49zM460 134h102v144z" />
    <glyph glyph-name="onesuperior" unicode="&#xb9;" horiz-adv-x="258" 
d="M133 441v304l-73 5v50h128v-359h-55z" />
    <glyph glyph-name="twosuperior" unicode="&#xb2;" horiz-adv-x="315" 
d="M40 440v57c0 129 184 123 184 202c0 41 -21 69 -65 69c-43 0 -67 -31 -65 -75h-51c-5 69 43 123 116 123c63 0 116 -38 116 -117c0 -122 -181 -116 -181 -202v-10h179v-47h-233z" />
    <glyph glyph-name="threesuperior" unicode="&#xb3;" horiz-adv-x="301" 
d="M254 800l-84 -128c55 -12 91 -55 91 -114c0 -69 -49 -118 -121 -118h-100v47h100c43 0 71 28 71 71s-28 71 -71 71h-49l80 124h-131v47h214z" />
    <glyph glyph-name="asterisk" unicode="*" horiz-adv-x="342" 
d="M216 609l67 -84l-38 -29l-74 93l-74 -93l-38 29l67 84l-96 46l23 43l93 -45v110h50v-110l93 45l23 -43z" />
    <glyph glyph-name="backslash" unicode="\" 
d="M470 -67l-268 819h68l268 -819h-68z" />
    <glyph glyph-name="periodcentered" unicode="&#xb7;" horiz-adv-x="511" 
d="M256 252c-32 0 -56 28 -56 57c0 26 24 54 56 54c27 0 55 -28 55 -54c0 -29 -27 -57 -55 -57z" />
    <glyph glyph-name="bullet" unicode="&#x2022;" 
d="M301 189c-71 0 -123 59 -123 124c0 62 52 121 123 121c63 0 122 -59 122 -121c0 -65 -59 -124 -122 -124z" />
    <glyph glyph-name="colon" unicode=":" horiz-adv-x="215" 
d="M110 332c-31 0 -56 25 -56 56c0 30 25 55 56 55c30 0 55 -25 55 -55c0 -31 -25 -56 -55 -56zM110 -5c-31 0 -56 25 -56 56c0 30 25 55 56 55c30 0 55 -25 55 -55c0 -31 -25 -56 -55 -56z" />
    <glyph glyph-name="comma" unicode="," horiz-adv-x="201" 
d="M45 -78l19 76c-23 7 -39 28 -39 53c0 30 25 55 56 55c30 0 55 -25 55 -55c0 -15 -6 -28 -11 -38l-48 -91h-32z" />
    <glyph glyph-name="ellipsis" unicode="&#x2026;" horiz-adv-x="550" 
d="M81 -5c-31 0 -56 25 -56 56c0 30 25 55 56 55c30 0 55 -25 55 -55c0 -31 -25 -56 -55 -56zM281 -5c-31 0 -56 25 -56 56c0 30 25 55 56 55c30 0 55 -25 55 -55c0 -31 -25 -56 -55 -56zM481 -5c-31 0 -56 25 -56 56c0 30 25 55 56 55c30 0 55 -25 55 -55
c0 -31 -25 -56 -55 -56z" />
    <glyph glyph-name="exclam" unicode="!" horiz-adv-x="211" 
d="M73 182v532h67v-532h-67zM106 -6c-31 0 -56 25 -56 56c0 30 25 55 56 55c30 0 55 -25 55 -55c0 -31 -25 -56 -55 -56z" />
    <glyph glyph-name="exclamdown" unicode="&#xa1;" horiz-adv-x="211" 
d="M105 521c31 0 56 -25 56 -56c0 -30 -25 -55 -56 -55c-30 0 -55 25 -55 55c0 31 25 56 55 56zM138 333v-532h-67v532h67z" />
    <glyph glyph-name="numbersign" unicode="#" horiz-adv-x="533" 
d="M502 375h-101l-45 -121l114 -1l-1 -65l-137 1l-65 -176h-68l65 176h-90l-65 -176h-68l65 177h-76v65h100l45 121l-112 1v65l136 -1l62 169h68l-62 -169h90l62 169h68l-63 -170h79zM288 254l45 122h-90l-45 -122h90z" />
    <glyph glyph-name="period" unicode="." horiz-adv-x="201" 
d="M81 -5c-31 0 -56 25 -56 56c0 30 25 55 56 55c30 0 55 -25 55 -55c0 -31 -25 -56 -55 -56z" />
    <glyph glyph-name="question" unicode="?" horiz-adv-x="549" 
d="M134 544h-76c4 103 81 178 202 178c139 0 204 -83 204 -184c0 -83 -45 -141 -136 -172c-58 -20 -53 -62 -53 -184h-73c0 132 -14 213 110 254c60 20 76 71 76 102c0 65 -52 111 -128 111c-75 0 -119 -43 -126 -105zM236 -6c-31 0 -56 25 -56 56c0 30 25 55 56 55
c30 0 55 -25 55 -55c0 -31 -25 -56 -55 -56z" />
    <glyph glyph-name="questiondown" unicode="&#xbf;" horiz-adv-x="503" 
d="M267 520c31 0 56 -25 56 -56c0 -30 -25 -55 -56 -55c-30 0 -55 25 -55 55c0 31 25 56 55 56zM369 -30h76c-4 -103 -81 -178 -202 -178c-139 0 -204 83 -204 184c0 83 45 141 136 172c58 20 53 62 53 184h73c0 -132 14 -213 -110 -254c-60 -20 -76 -71 -76 -102
c0 -65 52 -111 128 -111c75 0 119 43 126 105z" />
    <glyph glyph-name="quotedbl" unicode="&#x22;" 
d="M244 759c23 0 43 -19 43 -43c0 -7 -2 -14 -5 -20l-19 -119h-43l-21 131h2l-1 8c0 24 19 43 44 43zM428 716c0 -7 -2 -14 -5 -20l-19 -119h-43l-21 131h2l-1 8c0 24 19 43 44 43c23 0 43 -19 43 -43z" />
    <glyph glyph-name="quotesingle" unicode="'" horiz-adv-x="197" 
d="M143 714c0 -7 -2 -14 -5 -20l-19 -119h-43l-21 131h2l-1 8c0 24 19 43 44 43c23 0 43 -19 43 -43z" />
    <glyph glyph-name="semicolon" unicode=";" horiz-adv-x="211" 
d="M108 335c-31 0 -56 25 -56 56c0 30 25 55 56 55c30 0 55 -25 55 -55c0 -31 -25 -56 -55 -56zM66 -78l19 76c-23 7 -39 28 -39 53c0 30 25 55 56 55c30 0 55 -25 55 -55c0 -15 -6 -28 -11 -38l-48 -91h-32z" />
    <glyph glyph-name="slash" unicode="/" horiz-adv-x="425" 
d="M127 -67h-68l268 819h68z" />
    <glyph glyph-name="underscore" unicode="_" 
d="M60 -139h488v-61h-488v61z" />
    <glyph glyph-name="braceleft" unicode="{" horiz-adv-x="274" 
d="M165 598c-1 -128 -9 -217 -57 -264c48 -48 56 -137 57 -265c1 -124 25 -148 79 -157v-50c-119 0 -144 58 -145 219c-2 123 8 201 -69 215v75c77 14 67 92 69 215c1 161 26 219 145 219v-50c-54 -9 -78 -33 -79 -157z" />
    <glyph glyph-name="braceright" unicode="}" horiz-adv-x="274" 
d="M175 586c2 -123 -8 -201 69 -215v-75c-77 -14 -67 -92 -69 -215c-1 -161 -26 -219 -145 -219v50c54 9 78 33 79 157c1 128 9 217 57 264c-48 48 -56 137 -57 265c-1 124 -25 148 -79 157v50c119 0 144 -58 145 -219z" />
    <glyph glyph-name="bracketleft" unicode="[" 
d="M524 731h-133v-767h133v-64h-200v895h200v-64z" />
    <glyph glyph-name="bracketright" unicode="]" horiz-adv-x="300" 
d="M50 795h200v-895h-200v64h133v767h-133v64z" />
    <glyph glyph-name="parenleft" unicode="(" horiz-adv-x="392" 
d="M326 -99h-85c-127 98 -208 249 -208 415s81 317 208 414h85c-127 -97 -208 -248 -208 -414s81 -317 208 -415z" />
    <glyph glyph-name="parenright" unicode=")" horiz-adv-x="356" 
d="M115 -99h-85c127 98 208 249 208 415s-81 317 -208 414h85c127 -97 208 -248 208 -414s-81 -317 -208 -415z" />
    <glyph glyph-name="emdash" unicode="&#x2014;" horiz-adv-x="1060" 
d="M30 309h1000v-67h-1000v67z" />
    <glyph glyph-name="endash" unicode="&#x2013;" horiz-adv-x="560" 
d="M30 309h500v-67h-500v67z" />
    <glyph glyph-name="hyphen" unicode="-" horiz-adv-x="513" 
d="M65 319h383v-67h-383v67z" />
    <glyph glyph-name="softhyphen" unicode="&#xad;" 
d="M65 319h383v-67h-383v67z" />
    <glyph glyph-name="guillemetleft" unicode="&#xab;" horiz-adv-x="453" 
d="M267 393l-132 -167l132 -167h-75l-132 167l132 167h75zM413 393l-132 -167l132 -167h-75l-132 167l132 167h75z" />
    <glyph glyph-name="guillemetright" unicode="&#xbb;" horiz-adv-x="413" 
d="M75 393l132 -167l-132 -167h-75l132 167l-132 167h75zM221 393l132 -167l-132 -167h-75l132 167l-132 167h75z" />
    <glyph glyph-name="guilsinglleft" unicode="&#x2039;" horiz-adv-x="327" 
d="M267 393l-132 -167l132 -167h-75l-132 167l132 167h75z" />
    <glyph glyph-name="guilsinglright" unicode="&#x203a;" horiz-adv-x="327" 
d="M135 393l132 -167l-132 -167h-75l132 167l-132 167h75z" />
    <glyph glyph-name="quotedblbase" unicode="&#x201e;" horiz-adv-x="395" 
d="M86 -78l19 76c-23 7 -39 28 -39 53c0 30 25 55 56 55c30 0 55 -25 55 -55c0 -15 -6 -28 -11 -38l-48 -91h-32zM240 -78l19 76c-23 7 -39 28 -39 53c0 30 25 55 56 55c30 0 55 -25 55 -55c0 -15 -6 -28 -11 -38l-48 -91h-32z" />
    <glyph glyph-name="quotedblleft" unicode="&#x201c;" horiz-adv-x="385" 
d="M145 714l-19 -76c23 -7 39 -28 39 -53c0 -30 -25 -55 -56 -55c-30 0 -55 25 -55 55c0 15 6 28 11 38l48 91h32zM299 714l-19 -76c23 -7 39 -28 39 -53c0 -30 -25 -55 -56 -55c-30 0 -55 25 -55 55c0 15 6 28 11 38l48 91h32z" />
    <glyph glyph-name="quotedblright" unicode="&#x201d;" horiz-adv-x="385" 
d="M86 535l19 76c-23 7 -39 28 -39 53c0 30 25 55 56 55c30 0 55 -25 55 -55c0 -15 -6 -28 -11 -38l-48 -91h-32zM240 535l19 76c-23 7 -39 28 -39 53c0 30 25 55 56 55c30 0 55 -25 55 -55c0 -15 -6 -28 -11 -38l-48 -91h-32z" />
    <glyph glyph-name="quoteleft" unicode="&#x2018;" horiz-adv-x="200" 
d="M124 714l-19 -76c23 -7 39 -28 39 -53c0 -30 -25 -55 -56 -55c-30 0 -55 25 -55 55c0 15 6 28 11 38l48 91h32z" />
    <glyph glyph-name="quoteright" unicode="&#x2019;" horiz-adv-x="200" 
d="M45 535l19 76c-23 7 -39 28 -39 53c0 30 25 55 56 55c30 0 55 -25 55 -55c0 -15 -6 -28 -11 -38l-48 -91h-32z" />
    <glyph glyph-name="quotesinglbase" unicode="&#x201a;" horiz-adv-x="200" 
d="M45 -78l19 76c-23 7 -39 28 -39 53c0 30 25 55 56 55c30 0 55 -25 55 -55c0 -15 -6 -28 -11 -38l-48 -91h-32z" />
    <glyph glyph-name="space" unicode=" " horiz-adv-x="300" 
 />
    <glyph glyph-name="cent" unicode="&#xa2;" horiz-adv-x="493" 
d="M402 281h76c-29 -85 -108 -146 -200 -152v-128h-51v131c-108 18 -192 116 -192 227c0 112 83 207 191 225v130h51v-127c92 -6 170 -67 200 -150h-75c-25 46 -70 79 -125 83l1 -324c54 5 99 39 124 85zM105 359c0 -75 51 -142 122 -160l-1 318c-70 -17 -121 -82 -121 -158
z" />
    <glyph glyph-name="currency" unicode="&#xa4;" horiz-adv-x="506" 
d="M481 368c0 -49 -17 -96 -45 -134l56 -56l-24 -25l-24 -24l-55 55c-38 -28 -85 -46 -136 -46s-98 18 -136 47l-55 -55l-24 23l-24 24l56 56c-28 38 -45 85 -45 135s17 97 45 135l-56 56l24 24l24 25l56 -56c38 27 85 44 135 44s97 -17 135 -45l56 56l24 -24l24 -23
l-56 -56c28 -38 45 -85 45 -136zM253 204c89 0 158 77 158 164c0 89 -69 162 -158 162s-158 -73 -158 -162c0 -87 69 -164 158 -164z" />
    <glyph glyph-name="dollar" unicode="$" horiz-adv-x="531" 
d="M494 198c0 -117 -90 -196 -207 -206v-56h-52v56c-106 11 -190 88 -203 190h76c12 -61 63 -106 127 -116v278c-116 39 -178 90 -178 190s70 178 178 190v56h52v-56c88 -10 157 -72 172 -156h-80c-13 40 -49 72 -92 81v-240c120 -41 207 -94 207 -211zM133 534
c0 -55 34 -83 102 -108v224c-63 -12 -102 -61 -102 -116zM287 327v-262c75 9 131 58 131 133c0 61 -37 96 -131 129z" />
    <glyph glyph-name="euro" unicode="&#x20ac;" horiz-adv-x="546" 
d="M396 266h-235c28 -139 126 -237 291 -193v-73c-213 -46 -339 82 -369 266h-109v64h102v24c0 10 0 21 1 31h-103v64h110c32 181 157 310 368 265v-73c-162 43 -260 -55 -290 -192h291l-21 -64h-279c-1 -10 -1 -21 -1 -31l1 -24h265z" />
    <glyph glyph-name="florin" unicode="&#x192;" horiz-adv-x="347" 
d="M40 -100l68 479h-59l8 61h59l8 58c15 108 38 238 193 216l-13 -62c-87 12 -97 -64 -109 -150l-9 -62h89l-8 -61h-89l-68 -479h-70z" />
    <glyph glyph-name="sterling" unicode="&#xa3;" horiz-adv-x="461" 
d="M431 70v-70h-401v70c83 4 97 106 97 203v51h-87v70h87v67c0 177 20 329 242 238v-72c-171 86 -169 -42 -169 -166v-67h107v-70h-107v-51c0 -80 -10 -154 -41 -203h272z" />
    <glyph glyph-name="yen" unicode="&#xa5;" 
d="M564 714l-243 -389h127v-70h-127v-50h127v-70h-127v-135h-73v135h-125v70h125v50h-125v70h125l-242 389h77l202 -325l202 325h77z" />
    <glyph glyph-name="approxequal" unicode="&#x2248;" 
d="M308 455c77 -33 128 -51 133 20h65c-10 -110 -57 -156 -211 -96c-77 33 -128 51 -133 -20h-65c10 110 57 156 211 96zM308 285c77 -33 128 -51 133 20h65c-10 -110 -57 -156 -211 -96c-77 33 -128 51 -133 -20h-65c10 110 57 156 211 96z" />
    <glyph glyph-name="asciitilde" unicode="~" horiz-adv-x="469" 
d="M241 359c77 -33 128 -51 133 20h65c-10 -110 -57 -156 -211 -96c-77 33 -128 51 -133 -20h-65c10 110 57 156 211 96z" />
    <glyph glyph-name="divide" unicode="&#xf7;" 
d="M303 441c-31 0 -56 25 -56 56c0 30 25 55 56 55c30 0 55 -25 55 -55c0 -31 -25 -56 -55 -56zM48 242v67h500v-67h-500zM303 -7c-31 0 -56 25 -56 56c0 30 25 55 56 55c30 0 55 -25 55 -55c0 -31 -25 -56 -55 -56z" />
    <glyph glyph-name="emptyset" unicode="&#x2205;" horiz-adv-x="722" 
d="M705 613l-107 -125c53 -55 86 -126 86 -199c0 -160 -144 -304 -305 -304c-59 0 -116 19 -164 52l-67 -78h-95l106 125c-52 55 -85 128 -85 205c0 152 144 296 305 296c59 0 115 -19 164 -51l67 79h95zM143 289c0 -60 22 -115 59 -156l297 350c-35 20 -76 31 -120 31
c-133 0 -236 -102 -236 -225zM615 289c0 57 -22 109 -59 149l-298 -350c35 -20 77 -32 121 -32c133 0 236 102 236 233z" />
    <glyph glyph-name="equal" unicode="=" horiz-adv-x="560" 
d="M30 342v67h500v-67h-500zM30 182v67h500v-67h-500z" />
    <glyph glyph-name="greater" unicode="&#x3e;" horiz-adv-x="587" 
d="M35 516l517 -221l-517 -221v77l337 144l-337 144v77z" />
    <glyph glyph-name="greaterequal" unicode="&#x2265;" horiz-adv-x="587" 
d="M35 556l517 -221l-517 -221v77l337 144l-337 144v77zM35 1v67h500v-67h-500z" />
    <glyph glyph-name="infinity" unicode="&#x221e;" horiz-adv-x="743" 
d="M545 530c110 1 186 -82 186 -173s-76 -174 -186 -175c-71 1 -131 37 -164 88c-31 -51 -88 -87 -161 -88c-108 1 -190 84 -190 175s82 174 190 173c73 1 130 -35 161 -86c33 51 93 87 164 86zM545 242c79 0 128 49 128 115c0 65 -49 123 -128 122
c-70 1 -131 -66 -139 -122c18 -56 69 -115 139 -115zM220 233c72 0 128 68 135 124c-17 56 -64 114 -135 113c-77 1 -131 -48 -131 -113c0 -66 54 -124 131 -124z" />
    <glyph glyph-name="integral" unicode="&#x222b;" horiz-adv-x="551" 
d="M239 166v310c0 177 20 329 242 238v-72c-171 86 -169 -42 -169 -166v-310c0 -177 -20 -329 -242 -238v72c171 -86 169 42 169 166z" />
    <glyph glyph-name="less" unicode="&#x3c;" horiz-adv-x="587" 
d="M552 516v-77l-337 -144l337 -144v-77l-517 221z" />
    <glyph glyph-name="lessequal" unicode="&#x2264;" horiz-adv-x="587" 
d="M552 556v-77l-337 -144l337 -144v-77l-517 221zM52 1v67h500v-67h-500z" />
    <glyph glyph-name="logicalnot" unicode="&#xac;" horiz-adv-x="603" 
d="M40 440h503v-278h-69v211h-434v67z" />
    <glyph glyph-name="minus" unicode="&#x2212;" horiz-adv-x="560" 
d="M30 242v67h500v-67h-500z" />
    <glyph glyph-name="multiply" unicode="&#xd7;" horiz-adv-x="462" 
d="M432 439l-153 -153l152 -152l-47 -48l-152 153l-153 -153l-48 47l153 153l-154 154l48 47l154 -153l153 153z" />
    <glyph glyph-name="notequal" unicode="&#x2260;" 
d="M530 342h-194l-40 -93h234v-67h-264l-72 -166h-68l72 166h-168v67h198l40 93h-238v67h268l96 221h68l-96 -221h164v-67z" />
    <glyph glyph-name="partialdiff" unicode="&#x2202;" 
d="M460 645c87 -104 100 -271 30 -454c-46 -121 -123 -204 -238 -194c-117 10 -202 122 -191 250s114 224 231 213c74 -6 157 -64 167 -146c27 111 6 206 -46 280c-39 55 -133 142 -289 78c117 92 264 59 336 -27zM258 65c81 -7 153 61 161 150c7 91 -51 171 -133 178
s-154 -61 -162 -152c-8 -89 51 -169 134 -176z" />
    <glyph glyph-name="percent" unicode="%" horiz-adv-x="789" 
d="M201 399c94 0 141 61 141 163c0 100 -47 159 -141 159s-141 -59 -141 -159c0 -102 47 -163 141 -163zM100 0l491 697h78l-490 -697h-79zM201 662c56 0 82 -38 82 -100c0 -64 -26 -104 -82 -104c-55 0 -81 40 -81 104c0 62 26 100 81 100zM588 -5c94 0 141 61 141 163
c0 100 -47 159 -141 159s-141 -59 -141 -159c0 -102 47 -163 141 -163zM588 258c56 0 82 -38 82 -100c0 -64 -26 -104 -82 -104c-55 0 -81 40 -81 104c0 62 26 100 81 100z" />
    <glyph glyph-name="perthousand" unicode="&#x2030;" horiz-adv-x="1056" 
d="M171 399c94 0 141 61 141 163c0 100 -47 159 -141 159s-141 -59 -141 -159c0 -102 47 -163 141 -163zM70 0l491 697h78l-490 -697h-79zM171 662c56 0 82 -38 82 -100c0 -64 -26 -104 -82 -104c-55 0 -81 40 -81 104c0 62 26 100 81 100zM558 -5c94 0 141 61 141 163
c0 100 -47 159 -141 159s-141 -59 -141 -159c0 -102 47 -163 141 -163zM900 -5c94 0 141 61 141 163c0 100 -47 159 -141 159s-141 -59 -141 -159c0 -102 47 -163 141 -163zM558 258c56 0 82 -38 82 -100c0 -64 -26 -104 -82 -104c-55 0 -81 40 -81 104c0 62 26 100 81 100z
M900 258c56 0 82 -38 82 -100c0 -64 -26 -104 -82 -104c-55 0 -81 40 -81 104c0 62 26 100 81 100z" />
    <glyph glyph-name="plus" unicode="+" 
d="M550 309v-67h-216v-216h-67v216h-217v67h217v217h67v-217h216z" />
    <glyph glyph-name="plusminus" unicode="&#xb1;" 
d="M334 318h216v-67h-216v-149h-67v149h-217v67h217v159h67v-159zM50 0v67h500v-67h-500z" />
    <glyph glyph-name="product" unicode="&#x220f;" 
d="M599 714v-67h-54l4 -784h-70l-3 784h-356l4 -784h-70l-3 784h-52v67h600z" />
    <glyph glyph-name="radical" unicode="&#x221a;" 
d="M594 833h68l-366 -916h-84l-157 404h84l123 -318z" />
    <glyph glyph-name="summation" unicode="&#x2211;" 
d="M532 603v-73h-387l292 -239v-79l-292 -240h387v-73h-496v79l325 273l-325 273v79h496z" />
    <glyph glyph-name="upArrow" unicode="&#x2191;" horiz-adv-x="360" 
d="M180 710l150 -181h-116v-529h-67v529h-117z" />
    <glyph glyph-name="northEastArrow" unicode="&#x2197;" horiz-adv-x="774" 
d="M744 723v-256l-104 104l-562 -562l-48 48l562 562l-104 104h256z" />
    <glyph glyph-name="rightArrow" unicode="&#x2192;" horiz-adv-x="770" 
d="M730 301l-181 -150v117h-529v67h529v116z" />
    <glyph glyph-name="southEastArrow" unicode="&#x2198;" horiz-adv-x="774" 
d="M640 152l104 104v-256h-256l104 104l-562 562l48 48z" />
    <glyph glyph-name="downArrow" unicode="&#x2193;" horiz-adv-x="360" 
d="M214 181h116l-150 -181l-150 181h117v529h67v-529z" />
    <glyph glyph-name="southWestArrow" unicode="&#x2199;" horiz-adv-x="774" 
d="M744 658l-562 -562l104 -104h-256v256l104 -104l562 562z" />
    <glyph glyph-name="leftArrow" unicode="&#x2190;" horiz-adv-x="770" 
d="M211 335h529v-67h-529v-117l-181 150l181 150v-116z" />
    <glyph glyph-name="northWestArrow" unicode="&#x2196;" horiz-adv-x="774" 
d="M172 609l562 -562l-48 -48l-562 562l-104 -104v256h256z" />
    <glyph glyph-name="leftRightArrow" unicode="&#x2194;" horiz-adv-x="810" 
d="M780 301l-181 -150v117h-388v-117l-181 150l181 150v-118h388v118z" />
    <glyph glyph-name="upDownArrow" unicode="&#x2195;" horiz-adv-x="360" 
d="M214 494v-388h116l-150 -181l-150 181h117v388h-117l150 181l150 -181h-116z" />
    <glyph glyph-name="lozenge" unicode="&#x25ca;" 
d="M298 606l301 -302l-301 -301l-302 302zM298 514l-210 -209l210 -210l209 210z" />
    <glyph glyph-name="bar" unicode="|" horiz-adv-x="196" 
d="M129 -130h-64l2 880l64 1z" />
    <glyph glyph-name="brokenbar" unicode="&#xa6;" horiz-adv-x="197" 
d="M65 383v367h67v-367h-67zM65 -130v367h67v-367h-67z" />
    <glyph glyph-name="at" unicode="@" horiz-adv-x="883" 
d="M438 656c233 0 415 -192 415 -419c0 -26 -2 -52 -6 -76c-16 -108 -93 -156 -161 -145c-44 7 -72 30 -86 82c-33 -59 -91 -99 -166 -99c-125 0 -220 107 -220 230c0 125 95 228 220 228c62 0 112 -26 146 -68v51h67v-248c0 -80 11 -111 49 -117c36 -7 70 17 81 96
c4 21 6 43 6 66c0 191 -150 352 -345 352c-183 0 -338 -161 -338 -352c0 -195 155 -360 338 -360c97 0 151 22 222 77h92c-87 -103 -167 -144 -314 -144c-221 0 -408 195 -408 427c0 227 187 419 408 419zM432 65c87 0 144 77 144 164c0 89 -57 162 -144 162
c-89 0 -148 -73 -148 -162c0 -87 59 -164 148 -164z" />
    <glyph glyph-name="ampersand" unicode="&#x26;" horiz-adv-x="535" 
d="M265 290l114 -144c17 23 36 60 50 99h76c-22 -65 -55 -121 -83 -153l72 -92h-92l-35 42c-151 -103 -301 -40 -344 78c-28 76 -5 186 88 259c-41 67 -53 132 -47 182c11 87 62 142 125 155c92 19 182 -9 215 -93c9 -22 17 -63 12 -102h-76c4 28 -3 60 -7 72
c-22 58 -82 64 -114 59c-42 -7 -74 -40 -81 -92c-10 -70 29 -139 127 -270zM323 96l-117 148c-21 28 -40 54 -57 79c-64 -54 -81 -126 -61 -178c28 -79 126 -122 235 -49z" />
    <glyph glyph-name="paragraph" unicode="&#xb6;" 
d="M456 715l65 -1l-2 -844h-65l2 790l-78 1l-2 -791h-65l1 484c-98 0 -179 81 -179 181c0 99 81 180 180 180h143z" />
    <glyph glyph-name="copyright" unicode="&#xa9;" horiz-adv-x="804" 
d="M402 721c205 0 372 -166 372 -362c0 -204 -167 -370 -372 -370s-372 166 -372 370c0 196 167 362 372 362zM402 50c176 0 316 141 316 309c0 160 -140 301 -316 301s-316 -141 -316 -301c0 -168 140 -309 316 -309zM578 424h-62c-23 41 -65 70 -115 70
c-74 0 -133 -61 -133 -135c0 -72 59 -137 133 -137c50 0 92 31 115 72h63c-26 -74 -96 -127 -178 -127c-105 0 -191 89 -191 192c0 104 86 190 191 190c81 0 150 -52 177 -125z" />
    <glyph glyph-name="registered" unicode="&#xae;" horiz-adv-x="804" 
d="M402 721c205 0 372 -166 372 -362c0 -204 -167 -370 -372 -370s-372 166 -372 370c0 196 167 362 372 362zM402 50c176 0 316 141 316 309c0 160 -140 301 -316 301s-316 -141 -316 -301c0 -168 140 -309 316 -309zM502 178l-106 136h-55v-136h-53v372h125
c73 0 122 -49 122 -118c0 -53 -30 -95 -76 -111l111 -143h-68zM341 362h72c42 0 68 26 68 70c0 42 -26 68 -68 68h-72v-138z" />
    <glyph glyph-name="section" unicode="&#xa7;" horiz-adv-x="606" 
d="M468 249c23 -19 34 -44 34 -83c0 -91 -77 -166 -221 -166c-130 0 -220 70 -221 163h75c0 -55 60 -93 146 -93s146 40 146 96c0 49 -55 50 -160 70c-141 27 -237 104 -172 234c-23 19 -35 44 -35 83c0 91 77 166 221 166c130 0 220 -70 221 -163h-75c0 55 -60 93 -146 93
s-146 -40 -146 -96c0 -49 55 -50 160 -70c141 -27 238 -104 173 -234zM145 444c-26 -90 56 -125 137 -139c56 -10 102 -19 136 -30c26 90 -56 125 -138 139c-56 10 -101 19 -135 30z" />
    <glyph glyph-name="trademark" unicode="&#x2122;" horiz-adv-x="785" 
d="M161 350v322h-121v45h300v-45h-132v-322h-47zM746 717v-367h-46v254l-112 -254h-49l-112 255v-255h-47v367h50l133 -309l134 309h49z" />
    <glyph glyph-name="degree" unicode="&#xb0;" horiz-adv-x="269" 
d="M135 517c-62 0 -109 47 -109 109c0 61 47 108 109 108c61 0 108 -47 108 -108c0 -62 -47 -109 -108 -109zM135 568c31 0 57 26 57 58c0 31 -26 57 -57 57c-32 0 -58 -26 -58 -57c0 -32 26 -58 58 -58z" />
    <glyph glyph-name="asciicircum" unicode="^" horiz-adv-x="442" 
d="M221 714l221 -517h-77l-144 337l-144 -337h-77z" />
    <glyph glyph-name="dagger" unicode="&#x2020;" 
d="M502 468v-67h-170l3 -531h-70l-2 531h-169v67h169l-1 246h69l1 -246h170z" />
    <glyph glyph-name="daggerdbl" unicode="&#x2021;" 
d="M502 401h-170l2 -220h168v-67h-168l1 -244h-70l-1 244h-170v67h170l-1 220h-169v67h169l-1 246h69l1 -246h170v-67z" />
    <glyph glyph-name="acute" unicode="&#xb4;" 
d="M274 530h-75l104 145h87z" />
    <glyph glyph-name="breve" unicode="&#x2d8;" 
d="M381 648h64c7 -71 -51 -121 -141 -121c-91 0 -149 50 -142 121h62c4 -39 33 -62 80 -62c45 0 73 23 77 62z" />
    <glyph glyph-name="caron" unicode="&#x2c7;" 
d="M384 709l40 -28l-104 -134h-29l-104 134l40 28l79 -88z" />
    <glyph glyph-name="cedilla" unicode="&#xb8;" 
d="M214 -96h50c0 -25 26 -45 58 -45c31 0 56 20 56 45c0 24 -25 44 -56 44h-42l24 52h48l-7 -15c49 -8 84 -40 84 -81c0 -48 -47 -84 -107 -84c-61 0 -108 36 -108 84z" />
    <glyph glyph-name="circumflex" unicode="&#x2c6;" 
d="M384 522l-78 88l-79 -88l-40 28l104 134h29l104 -134z" />
    <glyph glyph-name="dieresis" unicode="&#xa8;" horiz-adv-x="484" 
d="M146 530c-26 0 -46 21 -46 47c0 23 20 44 46 44c24 0 45 -21 45 -44c0 -26 -21 -47 -45 -47zM339 530c-26 0 -46 21 -46 47c0 23 20 44 46 44c24 0 45 -21 45 -44c0 -26 -21 -47 -45 -47z" />
    <glyph glyph-name="dotaccent" unicode="&#x2d9;" 
d="M302 529c-27 0 -48 22 -48 49c0 24 21 46 48 46c25 0 47 -22 47 -46c0 -27 -22 -49 -47 -49z" />
    <glyph glyph-name="grave" unicode="`" 
d="M349 530l-116 145h87l104 -145h-75z" />
    <glyph glyph-name="hungarumlaut" unicode="&#x2dd;" 
d="M133 655l104 145h87l-116 -145h-75zM296 655l104 145h87l-116 -145h-75z" />
    <glyph glyph-name="macron" unicode="&#xaf;" 
d="M104 859h394v-59h-394v59z" />
    <glyph glyph-name="ogonek" unicode="&#x2db;" 
d="M393 -75v-61c-67 -35 -220 -16 -124 136h46c-71 -104 21 -104 78 -75z" />
    <glyph glyph-name="ring" unicode="&#x2da;" 
d="M292 528c-48 0 -87 41 -87 88c0 44 39 85 87 85c45 0 86 -41 86 -85c0 -47 -41 -88 -86 -88zM292 571c23 0 43 20 43 45c0 22 -20 42 -43 42c-25 0 -44 -20 -44 -42c0 -25 19 -45 44 -45z" />
    <glyph glyph-name="tilde" unicode="&#x2dc;" 
d="M334 520c-50 0 -60 42 -90 42c-35 0 -36 -36 -36 -36h-62c0 21 16 93 98 93c56 0 62 -42 90 -42c35 0 36 36 36 36h62c0 -21 -16 -93 -98 -93z" />
    <glyph glyph-name="commaaccent" unicode="&#x326;" horiz-adv-x="0" 
d="M46 -254l19 76c-23 7 -39 28 -39 53c0 30 25 55 56 55c30 0 55 -25 55 -55c0 -15 -6 -28 -11 -38l-48 -91h-32z" />
    </font>
</defs>
</svg>
